<?xml version="1.0" encoding="UTF-8"?><svg id="uuid-21e084fb-9340-4ed8-8294-aba7e25677e5" xmlns="http://www.w3.org/2000/svg" viewBox="0 0 173 173"><defs><style>.uuid-34bc70a4-f3ca-42f7-9096-c9c7537569d8{fill:#b3b3b3;}</style></defs><path class="uuid-34bc70a4-f3ca-42f7-9096-c9c7537569d8" d="M156.45,62.86c0-20.19-16.42-36.61-36.6-36.61-14.81,0-27.59,8.84-33.35,21.52-5.75-12.68-18.53-21.52-33.34-21.52-20.19,0-36.61,16.42-36.61,36.61,0,4.26,.73,8.34,2.08,12.15,1.53,4.33,3.85,8.29,6.79,11.7,1.25,1.46,2.62,2.82,4.09,4.06l55.83,55.46c.34,.34,.79,.52,1.24,.52s.91-.17,1.25-.52l57.91-57.53h0c3.75-3.77,6.7-8.33,8.54-13.43,1.4-3.88,2.17-8.06,2.17-12.41Z"/></svg>