<?xml version="1.0" encoding="UTF-8" standalone="no"?>
<svg
   id="uuid-c7432845-4b36-4b2a-a7ae-75dd15289c7d"
   viewBox="0 0 173 173"
   version="1.1"
   sodipodi:docname="home-off.svg"
   inkscape:version="1.1.2 (b8e25be8, 2022-02-05)"
   xmlns:inkscape="http://www.inkscape.org/namespaces/inkscape"
   xmlns:sodipodi="http://sodipodi.sourceforge.net/DTD/sodipodi-0.dtd"
   xmlns="http://www.w3.org/2000/svg"
   xmlns:svg="http://www.w3.org/2000/svg">
  <sodipodi:namedview
     id="namedview833"
     pagecolor="#ffffff"
     bordercolor="#666666"
     borderopacity="1.0"
     inkscape:pageshadow="2"
     inkscape:pageopacity="0.0"
     inkscape:pagecheckerboard="0"
     showgrid="false"
     inkscape:zoom="4.9075145"
     inkscape:cx="86.601885"
     inkscape:cy="86.5"
     inkscape:window-width="1399"
     inkscape:window-height="1035"
     inkscape:window-x="0"
     inkscape:window-y="23"
     inkscape:window-maximized="0"
     inkscape:current-layer="uuid-c7432845-4b36-4b2a-a7ae-75dd15289c7d" />
  <defs
     id="defs826">
    <style
       id="style824">.uuid-dcf20cf3-f519-4cf8-bb6b-6e82c5c02c2d{fill:#b3b3b3;}</style>
  </defs>
  <path
     class="uuid-dcf20cf3-f519-4cf8-bb6b-6e82c5c02c2d"
     d="M86.37,69.21c-13.76,0-27.53-.07-41.29,.02-9.45,.06-12.62,3.39-12.62,12.91-.01,17.61,.01,35.22-.01,52.83,0,7.92-1.01,8.84-9.29,8.82-7.86-.01-8.95-1.02-8.96-8.54-.02-22.87,.09-45.74-.07-68.61-.05-6.52,2.53-10.5,8.64-12.96,19.1-7.69,37.98-15.95,57.19-23.36,3.87-1.49,9.31-1.47,13.19,.03,19.39,7.47,38.49,15.71,57.74,23.58,5.57,2.28,8.02,6.15,7.99,12.18-.12,23.28-.03,46.55-.07,69.83-.01,6.58-1.58,7.86-9.1,7.86-7.56,0-9.1-1.24-9.12-7.88-.06-18.22,0-36.43-.03-54.65-.02-8.33-3.38-11.92-11.68-12.01-14.17-.15-28.34-.04-42.5-.04Z"
     id="path828"
     style="fill:#000000;fill-opacity:1" />
  <path
     class="uuid-dcf20cf3-f519-4cf8-bb6b-6e82c5c02c2d"
     d="M129.78,108c-.14-1.71-3.65-4.2-5.81-4.44-3.35-.37-4.9-1.36-5.97-4.56-7.47-22.32-3-18.06-26.13-18.47-1.9-.03-3.8-.05-5.7-.06h0s-.04,0-.06,0c-.02,0-.04,0-.06,0h0c-1.9,.01-3.8,.03-5.7,.06-23.13,.41-18.66-3.85-26.13,18.47-1.07,3.2-2.63,4.19-5.97,4.56-2.16,.24-5.67,2.73-5.81,4.44-.63,7.64-.34,15.36-.2,23.05,.02,1.05,1.06,2.09,1.64,3.13,1.06,1.89,2.15,3.77,3.19,5.67,.56,1.03,.98,2.97,1.59,3.03,4.98,.43,10.07,1.08,14.94,.38,1.55-.22,2.55-4.3,4.26-7.45h36.53c1.7,3.15,2.7,7.23,4.26,7.45,4.87,.7,9.96,.05,14.94-.38,.61-.05,1.02-1.99,1.59-3.03,1.04-1.9,2.13-3.78,3.19-5.67,.58-1.04,1.62-2.08,1.64-3.13,.14-7.69,.44-15.41-.2-23.05Zm-77.11,11.97c-3.04,0-5.5-2.46-5.5-5.5s2.46-5.5,5.5-5.5,5.5,2.46,5.5,5.5-2.46,5.5-5.5,5.5Zm33.5-16.83h-26.03c1.42-5.08,2.36-10,4.28-14.5,.68-1.61,3.7-3.07,5.69-3.12,5.31-.15,10.62-.12,15.93-.09h0s.04,0,.06,0c.02,0,.04,0,.06,0h0c5.31-.03,10.62-.06,15.93,.09,1.99,.06,5.01,1.52,5.69,3.12,1.92,4.5,2.86,9.41,4.28,14.5h-25.9Zm33.37,16.83c-3.04,0-5.5-2.46-5.5-5.5s2.46-5.5,5.5-5.5,5.5,2.46,5.5,5.5-2.46,5.5-5.5,5.5Z"
     id="path830"
     style="fill:#000000;fill-opacity:1" />
</svg>
