<?xml version="1.0" encoding="UTF-8"?><svg id="uuid-a7978aa8-db07-4643-9127-8a0951a36bb3" xmlns="http://www.w3.org/2000/svg" viewBox="0 0 173 173"><path class="uuid-e0f3b70b-9f58-4282-b281-c00e07552696" d="M30.25,91.75h51v51H30.25v-51Zm10.39,10.15c-.09,.49-.22,.88-.22,1.27-.01,9.15,.03,18.3-.05,27.46-.02,1.93,1.06,1.88,2.39,1.88,8.74-.02,17.47,0,26.21-.02,.7,0,1.41-.14,2.06-.21v-30.37h-30.39Z"/><path class="uuid-e0f3b70b-9f58-4282-b281-c00e07552696" d="M81.25,30.25v51H30.25V30.25h51Zm-40.62,10.27v30.54h30.42v-30.54h-30.42Z"/><path class="uuid-e0f3b70b-9f58-4282-b281-c00e07552696" d="M142.75,81.25h-51V30.25h51v51Zm-40.75-40.85v30.67h30.31c.11-.36,.25-.59,.25-.83,.02-9.4,0-18.8,.05-28.2,0-1.63-.91-1.65-2.09-1.65-4.82,.02-9.65,0-14.47,0-4.64,0-9.28,0-14.05,0Z"/><path class="uuid-e0f3b70b-9f58-4282-b281-c00e07552696" d="M91.75,142.75v-50.85h30.5v9.81h10.33v-9.95h10.17v30.5h-30.63v-10.04h-10.37v30.54h-10Z"/><path class="uuid-e0f3b70b-9f58-4282-b281-c00e07552696" d="M112.25,142.75v-10.01h10v10.01h-10Z"/><path class="uuid-e0f3b70b-9f58-4282-b281-c00e07552696" d="M132.75,142.75v-10h10v10h-10Z"/><path class="uuid-e0f3b70b-9f58-4282-b281-c00e07552696" d="M50.87,122.06v-9.79h9.76v9.79h-9.76Z"/><path class="uuid-e0f3b70b-9f58-4282-b281-c00e07552696" d="M50.87,50.87h9.85v9.85h-9.85v-9.85Z"/><path class="uuid-e0f3b70b-9f58-4282-b281-c00e07552696" d="M122.15,50.88v9.82h-9.85v-9.82h9.85Z"/></svg>