<?xml version="1.0" encoding="UTF-8"?><svg id="uuid-c7a08a4a-03e9-4f6e-8d9f-145a0c3663bc" xmlns="http://www.w3.org/2000/svg" viewBox="0 0 173 173"><defs><style>.uuid-613c3653-2cd8-431e-b425-b9dbe29f2e95{fill:#fff;}</style></defs><path d="M171.02,86.5C171.02,39.82,133.18,1.98,86.5,1.98S1.98,39.82,1.98,86.5c0,42.19,30.91,77.15,71.31,83.49v-59.06h-21.46v-24.43h21.46v-18.62c0-21.18,12.62-32.88,31.92-32.88,9.25,0,18.92,1.65,18.92,1.65v20.8h-10.66c-10.5,0-13.77,6.52-13.77,13.2v15.85h23.44l-3.75,24.43h-19.69v59.06c40.4-6.34,71.31-41.3,71.31-83.49Z"/><path class="uuid-613c3653-2cd8-431e-b425-b9dbe29f2e95" d="M119.4,110.93l3.75-24.43h-23.44v-15.85c0-6.68,3.27-13.2,13.77-13.2h10.66v-20.8s-9.67-1.65-18.92-1.65c-19.31,0-31.92,11.7-31.92,32.88v18.62h-21.46v24.43h21.46v59.06c4.3,.68,8.71,1.03,13.21,1.03s8.9-.35,13.21-1.03v-59.06h19.69Z"/></svg>