<?xml version="1.0" encoding="UTF-8"?><svg id="uuid-793d81b0-db80-4817-a544-2cf462b4d959" xmlns="http://www.w3.org/2000/svg" viewBox="0 0 173 173"><defs><style>.uuid-1d29e989-e753-488f-b43f-5b390c821f03{fill:#fff;}</style></defs><circle cx="86.5" cy="86.5" r="84.52"/><g><path class="uuid-1d29e989-e753-488f-b43f-5b390c821f03" d="M112.73,54.53c-3.21,0-5.81,2.6-5.81,5.81s2.6,5.81,5.81,5.81,5.81-2.6,5.81-5.81-2.6-5.81-5.81-5.81Z"/><path class="uuid-1d29e989-e753-488f-b43f-5b390c821f03" d="M86.91,61.98c-13.46,0-24.4,10.95-24.4,24.4s10.95,24.4,24.4,24.4,24.4-10.95,24.4-24.4-10.95-24.4-24.4-24.4Zm0,40.04c-8.62,0-15.63-7.01-15.63-15.63s7.01-15.63,15.63-15.63,15.63,7.01,15.63,15.63-7.01,15.63-15.63,15.63Z"/><path class="uuid-1d29e989-e753-488f-b43f-5b390c821f03" d="M106.28,135.93h-39.56c-16.41,0-29.77-13.35-29.77-29.77v-39.57c0-16.41,13.35-29.77,29.77-29.77h39.56c16.41,0,29.77,13.35,29.77,29.77v39.57c0,16.41-13.35,29.77-29.77,29.77ZM66.72,46.16c-11.27,0-20.44,9.17-20.44,20.44v39.57c0,11.27,9.17,20.44,20.44,20.44h39.56c11.27,0,20.44-9.17,20.44-20.44v-39.57c0-11.27-9.17-20.44-20.44-20.44h-39.56Z"/></g></svg>