<?xml version="1.0" encoding="UTF-8"?><svg id="uuid-3595c005-3bca-48ed-856f-8b9c9c0f92fd" xmlns="http://www.w3.org/2000/svg" viewBox="0 0 173 173">><path d="M86.5,1.5C39.56,1.5,1.5,39.56,1.5,86.5s38.06,85,85,85,85-38.06,85-85S133.44,1.5,86.5,1.5Zm-15.17,121.11c-14.55,1.18-33.11-14.47-39.71-33.54v-7.63c6.26-19.08,22.36-32.97,39.71-33.95V122.61Zm23.82-18.05c-1.26,3.64-4.21,6.65-6.3,10-.53,.85-1,1.88-1.07,2.86-.15,2.37-.05,4.76-.05,7.85-4.35-.35-8.13-.66-12.14-.99V46.17c3.91-.42,7.78-.83,12.49-1.33-1.6,6.53,.94,10.75,4.52,15.36,2.77,3.57,3.66,9.05,4.41,13.84,1.61,10.25,1.56,20.63-1.87,30.52Zm46.22,21.83c-1.76,.61-3.82,2.17-5.22,1.69-9.5-3.26-18.87-6.94-28.27-10.5-2.53-.96-4.25-2.67-2.58-5.39,.6-.98,2.96-1.74,4.09-1.33,9.72,3.46,19.35,7.18,28.98,10.91,1.1,.43,2.01,1.38,3.01,2.09v2.54Zm0-28.84c-1.52,2.35-3.44,2.78-6.02,1.77-9.1-3.56-18.24-7-27.38-10.44-2.35-.88-4.27-2.43-2.85-4.9,.68-1.18,3.61-2.03,5.03-1.53,9.47,3.3,18.81,6.97,28.17,10.6,1.11,.43,2.05,1.3,3.07,1.97v2.54Zm0-28.84c-1.56,2.69-3.61,2.84-6.32,1.77-8.83-3.49-17.71-6.83-26.61-10.14-2.42-.9-4.52-2.02-3.48-5.09,1-2.95,3.4-2.35,5.54-1.55,9.14,3.42,18.27,6.89,27.37,10.41,1.24,.48,2.34,1.36,3.5,2.06v2.54Z"/></svg>