<?xml version="1.0" encoding="UTF-8"?><svg id="uuid-6079775f-384f-4448-b5b5-b515e10f4b07" xmlns="http://www.w3.org/2000/svg" viewBox="0 0 70 70"><path d="M66.47,37.09v5.88c-.07,.27-.18,.53-.19,.8-.16,3.39-.34,6.79-.45,10.18-.07,2.2-.5,2.68-2.75,2.68-2.05,0-4.1,0-6.15,0-2.54,0-2.69-.12-3.29-2.71-12.45-.62-24.94-.67-37.4,.03-.28,2.29-.71,2.67-2.77,2.68-2.38,0-4.75,.02-7.13,0-1.52-.02-2.11-.61-2.17-2.11-.03-.7,.03-1.4-.01-2.1-.2-3.15-.43-6.3-.64-9.45,0-1.96,0-3.92,0-5.88,.56-2.68,.84-5.49,3.01-7.09-1.05-1.05-2.03-2.02-3.01-2.99,0-.19,0-.37,0-.56,1.04-1.33,2.55-1.54,4.08-1.76,1.5-.21,3.06-.7,3.8,1.21,1.48-2.86,2.85-5.6,4.3-8.3,.89-1.67,2.38-2.57,4.22-2.9,10-1.79,20.01-1.82,30.02-.02,1.91,.34,3.44,1.22,4.35,2.93,1.23,2.3,2.35,4.65,3.51,6.98,.21,.43,.39,.88,.64,1.43,.56-.59,1.01-1.46,1.44-1.45,2.33,.06,4.79-.12,6.58,1.88v.56c-.98,.97-1.97,1.95-2.78,2.75,.69,1.43,1.53,3,2.2,4.63,.34,.83,.39,1.79,.58,2.69Zm-10.87-10.41c-1.47-2.77-2.8-5.37-4.24-7.89-.28-.48-1.02-.85-1.6-.97-9.85-1.91-19.72-1.9-29.57,0-.51,.1-1.18,.38-1.41,.79-1.49,2.59-2.87,5.23-4.41,8.08,13.93-.83,27.38-.83,41.24,0ZM13.88,42.05c.74,0,1.5,.08,2.23-.02,.65-.09,1.74-.27,1.81-.59,.13-.67-.12-1.54-.5-2.16-.3-.49-.98-.93-1.55-1.04-2.19-.39-4.41-.64-6.62-.91-1.08-.13-1.52,.47-1.23,1.44,.76,2.61,1.52,3.37,3.92,3.28,.65-.02,1.3,0,1.95,0Zm42.14,0s0,0,0,0c.7,0,1.4,0,2.09,0,2.31-.01,3.39-.9,3.88-3.17,.24-1.13-.13-1.66-1.26-1.54-2.17,.23-4.36,.41-6.47,.92-.83,.2-1.67,1.11-2.14,1.91-.64,1.08-.15,1.77,1.12,1.86,.93,.06,1.86,.01,2.79,.01Zm-41.08,2.66c-1.11,0-2.23-.07-3.33,.04-.37,.04-.7,.54-1.05,.83,.33,.25,.66,.7,.99,.71,2.27,.06,4.54,.06,6.81,0,.36,0,.7-.43,1.05-.66-.34-.31-.65-.84-1.01-.88-1.15-.11-2.31-.04-3.47-.05Zm40.09,1.62c1.11,0,2.23,.07,3.34-.04,.38-.04,.73-.49,1.09-.75-.36-.28-.72-.78-1.09-.79-2.22-.08-4.45-.08-6.68,0-.37,.01-.73,.52-1.09,.79,.37,.26,.71,.71,1.1,.75,1.1,.1,2.22,.04,3.34,.04Z"/></svg>