<?xml version="1.0" encoding="UTF-8"?><svg id="uuid-c2b4da4e-e850-46ba-b663-c4347fe9b4f4" xmlns="http://www.w3.org/2000/svg" viewBox="0 0 70 70"><defs><style>.uuid-79306fbb-a3f4-4276-968a-a1100f845c29{fill:#fff;}</style></defs><path class="uuid-79306fbb-a3f4-4276-968a-a1100f845c29" d="M42.48,17.6c1.62,0,3.2,.03,4.79,0,1.71-.04,2.56-.9,2.66-2.6,.03-.53,.01-1.06,0-1.6-.02-2.29-.89-3.18-3.16-3.19-5.28,0-10.55,0-15.83,0-2.13,0-2.98,.84-3.04,2.98-.01,.53-.02,1.07,0,1.6,.07,2,.86,2.79,2.86,2.82,1.39,.02,2.79,0,4.22,0,.06,.92,.11,1.67,.16,2.43h7.2c.04-.79,.08-1.51,.13-2.43Z"/><path d="M2.77,32.04c1.08-1.7,4.57-2.52,6.23-1.28,.59,.44,1.01,1.41,1.1,2.18,.17,1.47,.05,2.98,.05,4.54h2.51c0-1.52-.01-3.06,0-4.59,.02-1.67,1-2.68,2.66-2.82,.05,0,.1-.01,.15,0,3.09,.64,5.32-.76,7.04-3.13,2.61-3.61,6.06-4.59,10.45-4.37,7.16,.36,14.36,.09,21.54,.1,2.27,0,3.03,.77,3.03,3.06,0,3.87,0,7.75,0,11.72h2.58c0-1.51-.01-3.05,0-4.58,.02-1.78,.88-2.69,2.63-2.79,.63-.04,1.26-.03,1.89,0,1.52,.07,2.56,1.03,2.57,2.57,.04,5.72,.02,11.45,0,17.17,0,.38-.06,.79-.21,1.13-.57,1.33-2.54,1.87-4.96,1.41-1.34-.25-2.16-1.2-2.2-2.66-.04-1.45,0-2.9,0-4.45h-2.33c-.04,.07-.15,.16-.14,.23,.41,2.42-.94,3.95-2.56,5.47-2.65,2.49-5.12,5.18-7.77,7.66-.67,.62-1.75,1.1-2.65,1.11-5.38,.1-10.77,.09-16.15,0-.78-.01-1.68-.42-2.29-.93-1.93-1.63-3.77-3.35-5.58-5.11-.82-.81-1.68-1.11-2.83-1.1-4.54,.06-4.85-.29-4.85-4.84,0-.81,0-1.63,0-2.52h-2.51c0,1.32,0,2.65,0,3.98,0,2.74-.68,3.37-3.47,3.42-1.68,.03-3.24-.06-3.92-1.96v-18.63Zm40.05,8.06h-5.66c1.95-3.3,3.81-6.45,5.8-9.81-1.78,0-3.32,.06-4.85-.02-.88-.05-1.26,.32-1.63,1.05-1.58,3.15-3.23,6.27-4.84,9.41-.34,.67-.66,1.35-1.12,2.29h5.2c-1.39,3.84-2.69,7.44-4,11.04l.2,.1c3.54-4.57,7.08-9.14,10.88-14.07Z"/><path d="M42.48,17.6c-.05,.92-.09,1.63-.13,2.43h-7.2c-.05-.76-.1-1.5-.16-2.43-1.43,0-2.83,.02-4.22,0-2-.03-2.79-.82-2.86-2.82-.02-.53-.01-1.07,0-1.6,.05-2.13,.9-2.97,3.04-2.98,5.28,0,10.55,0,15.83,0,2.26,0,3.14,.9,3.16,3.19,0,.53,.02,1.07,0,1.6-.09,1.7-.95,2.56-2.66,2.6-1.58,.04-3.17,0-4.79,0Z"/></svg>