<?xml version="1.0" encoding="UTF-8"?><svg id="uuid-37cfdfb5-d3f3-4d02-a867-8664c666b72e" xmlns="http://www.w3.org/2000/svg" viewBox="0 0 70 70"><path d="M41.85,67.19h-13.14c-1.18-.06-2.37-.12-3.55-.19-1.87-.1-3.78-2.06-3.79-3.88-.02-12.51-.04-25.02-.05-37.53,0-.3,.03-.6,.05-.91h27.27c.02,.32,.04,.56,.04,.81-.02,12.57-.03,25.15-.06,37.72,0,1.72-2.01,3.71-3.78,3.8-1,.05-1.99,.12-2.98,.18Zm-6.26-22.43c1.94-3.13,3.75-6.04,5.56-8.96l-.19-.13c-4.48,3.75-8.97,7.5-13.45,11.24,.04,.09,.07,.17,.11,.26h6.7c-1.92,3.09-3.75,6.03-5.58,8.97,.05,.03,.1,.07,.14,.1,4.51-3.75,9.02-7.51,13.53-11.26-.02-.07-.04-.14-.06-.21h-6.77Z"/><path d="M41.48,2.81c.37,.04,.74,.11,1.11,.13,1.28,.09,2.26,1.11,2.27,2.39,.01,1.3-.93,2.33-2.27,2.36-1.65,.04-3.3,.01-5.02,.01v9.39c.31,.02,.63,.04,.96,.05,1.91,.04,3.82,.02,5.72,.11,2.36,.11,4.45,2.51,4.34,4.95H21.43c-.2-2.34,1.94-4.81,4.29-4.96,1.12-.07,2.25-.09,3.38-.11,1.09-.02,2.18,0,3.34,0V7.71c-1.63,0-3.22,.02-4.8,0-1.56-.03-2.5-.95-2.51-2.41-.01-1.3,1.04-2.3,2.48-2.37,.31-.02,.61-.08,.92-.12,4.32,0,8.64,0,12.95,0Z"/></svg>