<?xml version="1.0" encoding="UTF-8"?><svg id="uuid-43c583bd-d122-422f-87d8-1d9ba5d151dd" xmlns="http://www.w3.org/2000/svg" viewBox="0 0 173 173"><defs><style>.uuid-67ffb472-8fb8-4974-9c17-b6fc6de35007{fill:#fff;}</style></defs><path d="M86.5,1.5C39.56,1.5,1.5,39.56,1.5,86.5s38.06,85,85,85,85-38.06,85-85S133.44,1.5,86.5,1.5Z"/><g><path class="uuid-67ffb472-8fb8-4974-9c17-b6fc6de35007" d="M86.72,75.83c2.66,0,5.33-.02,7.99,0,3.6,.05,5.45,1.24,6.38,4.58,3.59,13,5.52,26.23,5.18,39.74-.08,3.32-.67,3.65-3.94,2.8-10.63-2.78-21.28-2.83-31.85,.11-2.83,.79-3.62-.35-3.61-2.7,.05-13.67,1.67-27.15,5.2-40.37,.74-2.76,2.8-4.19,5.74-4.17,2.97,.01,5.94,0,8.91,0Z"/><path class="uuid-67ffb472-8fb8-4974-9c17-b6fc6de35007" d="M110.52,125.33c2.66-8.61,1.34-17.06,.31-25.36-1.09-8.85-2.97-17.62-4.88-26.35-1.4-6.43-4.26-8.38-10.76-8.39-6.05,0-12.1-.02-18.15,0-5.39,.02-8.53,2.18-9.83,7.3-3.9,15.3-5.75,30.88-5.9,46.66-.02,1.95,.77,3.91,1.19,5.86-5.43-.4-8.31-3.46-8.27-9.17,.13-15.89,1.94-31.6,5.55-47.08,.44-1.88,.83-3.78,1.3-5.66,2.32-9.43,4.39-11.18,15.25-12.03-1.2-1.16-1.87-1.8-2.54-2.45-1.18-1.16-2.98-2.12-3.43-3.52-2.18-6.81,2.72-13.27,9.81-13.28,4.72,0,9.44,.09,14.16-.03,3.53-.09,5.69,1.73,7.1,4.65,1.67,3.48,2.69,7.11,.37,10.69-.5,.76-1.81,.96-2.65,1.55-.73,.51-1.32,1.21-2.6,2.43,2.88,.19,4.6,.1,6.22,.46,4.14,.94,6.68,3.64,7.91,7.67,3.99,12.99,6.55,26.26,7.68,39.79,.48,5.77,.59,11.59,.59,17.39,0,5.12-2.86,8.01-8.45,8.86Zm-16.13-73.94l.44-1.03c-.47-.54-.92-1.52-1.4-1.54-4.57-.12-9.15-.1-13.73,0-.4,0-.77,.92-1.16,1.41,.49,.38,.98,1.09,1.48,1.1,4.79,.08,9.58,.05,14.37,.05Z"/><path class="uuid-67ffb472-8fb8-4974-9c17-b6fc6de35007" d="M86.32,141.12c-9.79,0-19.59-.07-29.38,.05-2.48,.03-3.92-.49-4.83-3.08-1.92-5.46-4.35-10.74-6.31-16.19-.33-.91,.65-2.29,1.02-3.46,1.11,.73,2.95,1.27,3.21,2.24,1.96,7.27,6.45,10.13,14.1,8.59,3.78-.76,7.54-1.72,11.34-2.34,10.78-1.73,21.4-.72,31.97,1.91,2.83,.7,6.05,.82,8.88,.23,3.84-.81,6.06-3.75,6.58-7.76,.25-1.92,1.12-3.57,3.21-2.64,.79,.35,1.43,2.67,1.06,3.72-1.92,5.46-4.3,10.76-6.29,16.2-.78,2.12-2.01,2.6-4.08,2.58-10.16-.08-20.31-.04-30.47-.04Z"/></g></svg>