<?xml version="1.0" encoding="UTF-8"?><svg id="uuid-e81b09b2-248e-4cf2-ad00-bd204a0c46f4" xmlns="http://www.w3.org/2000/svg" viewBox="0 0 173 173"><path d="M80.06,67.8c-.82-7.53-2.64-14.96-4.01-22.34-9.22,1.02-19.7,8.51-25.31,17.84,6.51,3.73,12.67,7.52,19.07,10.84,4.82,2.49,10.82-1.07,10.25-6.33Z"/><circle cx="86.5" cy="86.5" r="5.63"/><path d="M67.56,87.08c-7.69-1.68-15.59-2.39-23.71-3.55-.7,11.81,2.86,21.05,9.68,30.33,5.93-5.65,11.53-10.67,16.73-16.08,3.03-3.14,1.49-9.79-2.7-10.7Z"/><path d="M103.31,74.1c6.42-3.32,12.57-7.15,19.18-10.96-6.26-9.11-14.2-15.12-25.43-18.28-1.5,7.87-3.35,15.17-4.17,22.58-.62,5.57,5.38,9.26,10.42,6.65Z"/><path d="M86.5,1.5C39.56,1.5,1.5,39.56,1.5,86.5s38.06,85,85,85,85-38.06,85-85S133.44,1.5,86.5,1.5Zm.1,136.64c-28.25,.06-51.79-23.26-51.8-51.31-.01-29,22.92-51.99,51.86-51.97,28.55,.01,51.53,22.9,51.55,51.34,.02,28.56-23.15,51.88-51.6,51.94Z"/><path d="M80.66,105.72c-3.7,6.45-6.55,13.39-9.92,20.43,10.69,3.92,20.56,3.99,31.48,.02-3.34-7.08-6.11-13.91-9.69-20.28-2.85-5.07-9-5.17-11.87-.17Z"/><path d="M103.03,98.12c5.15,5.25,10.74,10.07,16.67,15.56,6.49-9.25,10.39-18.46,9.3-30.08-7.92,1.06-15.43,1.71-22.77,3.18-5.04,1.01-6.85,7.63-3.2,11.34Z"/></svg>