<?xml version="1.0" encoding="UTF-8"?><svg id="uuid-1cd4b526-dbd7-4374-8ec6-883bfd2a00dc" xmlns="http://www.w3.org/2000/svg" viewBox="0 0 173 173"><path class="uuid-f75b4d51-5094-4efd-a2c6-5e06ce7d7138" d="M156.45,62.86c0-20.19-16.42-36.61-36.6-36.61-14.81,0-27.59,8.84-33.35,21.52-5.75-12.68-18.53-21.52-33.34-21.52-20.19,0-36.61,16.42-36.61,36.61,0,4.26,.73,8.34,2.08,12.15,1.53,4.33,3.85,8.29,6.79,11.7,1.25,1.46,2.62,2.82,4.09,4.06l55.83,55.46c.34,.34,.79,.52,1.24,.52s.91-.17,1.25-.52l57.91-57.53h0c3.75-3.77,6.7-8.33,8.54-13.43,1.4-3.88,2.17-8.06,2.17-12.41Z"/></svg>