<?xml version="1.0" encoding="UTF-8" standalone="no"?>
<svg
   id="uuid-793d81b0-db80-4817-a544-2cf462b4d959"
   viewBox="0 0 173 173"
   version="1.1"
   sodipodi:docname="instagram.svg"
   inkscape:version="1.1.2 (b8e25be8, 2022-02-05)"
   xmlns:inkscape="http://www.inkscape.org/namespaces/inkscape"
   xmlns:sodipodi="http://sodipodi.sourceforge.net/DTD/sodipodi-0.dtd"
   xmlns="http://www.w3.org/2000/svg"
   xmlns:svg="http://www.w3.org/2000/svg">
  <defs
     id="defs1024" />
  <sodipodi:namedview
     id="namedview1022"
     pagecolor="#ffffff"
     bordercolor="#666666"
     borderopacity="1.0"
     inkscape:pageshadow="2"
     inkscape:pageopacity="0.0"
     inkscape:pagecheckerboard="0"
     showgrid="false"
     inkscape:zoom="4.9075145"
     inkscape:cx="86.092462"
     inkscape:cy="89.352768"
     inkscape:window-width="1384"
     inkscape:window-height="1035"
     inkscape:window-x="0"
     inkscape:window-y="23"
     inkscape:window-maximized="0"
     inkscape:current-layer="uuid-793d81b0-db80-4817-a544-2cf462b4d959" />
  <circle
     cx="86.5"
     cy="86.5"
     r="84.52"
     id="circle1011" />
  <g
     id="g1019"
     style="fill:#ffffff;fill-opacity:1">
    <path
       class="uuid-1d29e989-e753-488f-b43f-5b390c821f03"
       d="M112.73,54.53c-3.21,0-5.81,2.6-5.81,5.81s2.6,5.81,5.81,5.81,5.81-2.6,5.81-5.81-2.6-5.81-5.81-5.81Z"
       id="path1013"
       style="fill:#ffffff;fill-opacity:1" />
    <path
       class="uuid-1d29e989-e753-488f-b43f-5b390c821f03"
       d="M86.91,61.98c-13.46,0-24.4,10.95-24.4,24.4s10.95,24.4,24.4,24.4,24.4-10.95,24.4-24.4-10.95-24.4-24.4-24.4Zm0,40.04c-8.62,0-15.63-7.01-15.63-15.63s7.01-15.63,15.63-15.63,15.63,7.01,15.63,15.63-7.01,15.63-15.63,15.63Z"
       id="path1015"
       style="fill:#ffffff;fill-opacity:1" />
    <path
       class="uuid-1d29e989-e753-488f-b43f-5b390c821f03"
       d="M106.28,135.93h-39.56c-16.41,0-29.77-13.35-29.77-29.77v-39.57c0-16.41,13.35-29.77,29.77-29.77h39.56c16.41,0,29.77,13.35,29.77,29.77v39.57c0,16.41-13.35,29.77-29.77,29.77ZM66.72,46.16c-11.27,0-20.44,9.17-20.44,20.44v39.57c0,11.27,9.17,20.44,20.44,20.44h39.56c11.27,0,20.44-9.17,20.44-20.44v-39.57c0-11.27-9.17-20.44-20.44-20.44h-39.56Z"
       id="path1017"
       style="fill:#ffffff;fill-opacity:1" />
  </g>
</svg>
