<?xml version="1.0" encoding="UTF-8" standalone="no"?>
<svg
   id="uuid-1ea4edf6-42c1-4fb9-be93-bdcb737379a8"
   viewBox="0 0 173 173"
   version="1.1"
   sodipodi:docname="notifications.svg"
   inkscape:version="1.1.2 (b8e25be8, 2022-02-05)"
   xmlns:inkscape="http://www.inkscape.org/namespaces/inkscape"
   xmlns:sodipodi="http://sodipodi.sourceforge.net/DTD/sodipodi-0.dtd"
   xmlns="http://www.w3.org/2000/svg"
   xmlns:svg="http://www.w3.org/2000/svg">
  <sodipodi:namedview
     id="namedview1651"
     pagecolor="#ffffff"
     bordercolor="#666666"
     borderopacity="1.0"
     inkscape:pageshadow="2"
     inkscape:pageopacity="0.0"
     inkscape:pagecheckerboard="0"
     showgrid="false"
     inkscape:zoom="4.9075145"
     inkscape:cx="86.5"
     inkscape:cy="86.5"
     inkscape:window-width="1384"
     inkscape:window-height="1035"
     inkscape:window-x="0"
     inkscape:window-y="23"
     inkscape:window-maximized="0"
     inkscape:current-layer="uuid-1ea4edf6-42c1-4fb9-be93-bdcb737379a8" />
  <defs
     id="defs1644">
    <style
       id="style1642">.uuid-e8f95541-8807-455f-90e8-72577458f5d4{fill:#b3b3b3;}</style>
  </defs>
  <path
     class="uuid-e8f95541-8807-455f-90e8-72577458f5d4"
     d="M84.1,152.99c-3.82-1.43-7.49-3.12-9.37-7.03-.89-1.85-1.36-3.9-2.15-6.26h27.04c1.31,3.96-3.11,10.22-7.36,11.95-1.1,.45-2.2,.9-3.3,1.35h-4.85Z"
     id="path1646"
     style="fill:#000000;fill-opacity:1" />
  <path
     class="uuid-e8f95541-8807-455f-90e8-72577458f5d4"
     d="M86.22,132.42c-14.46,0-28.92-.04-43.38,.03-3.33,.02-6.03-.85-7.41-4.08-1.43-3.35-.46-6.35,2.33-8.35,6.83-4.93,8.81-11.39,8.07-19.62-.7-7.82-.22-15.76-.12-23.65,.14-11.26,3.28-21.52,10.77-30.16,4.69-5.4,10.53-9.12,17.41-11.05,1.99-.56,2.6-1.44,2.42-3.36-.11-1.19-.01-2.43,.19-3.62,.97-5.48,5.23-8.83,10.76-8.53,5.01,.27,9.43,4.16,9.23,9.41-.18,4.48,1.77,5.7,5.46,7.14,14.53,5.67,22.36,17.08,24.49,32.04,1.23,8.64,.72,17.53,.9,26.32,.1,4.85-.11,9.71,.1,14.56,.06,1.44,.78,3.08,1.71,4.19,1.94,2.32,4.19,4.38,6.38,6.48,2.44,2.32,3.41,4.99,2.05,8.19-1.32,3.1-3.87,4.1-7.1,4.09-14.76-.05-29.52-.02-44.29-.02Z"
     id="path1648"
     style="fill:#000000;fill-opacity:1" />
</svg>
