<?xml version="1.0" encoding="UTF-8"?><svg id="uuid-8ca1aa31-d3c5-486e-a81d-8879d090bcde" xmlns="http://www.w3.org/2000/svg" viewBox="0 0 173 173"><path class="uuid-195e0a9d-41d4-43af-a905-c986bfee135c" d="M21.5,92.57h58.93v58.93H21.5v-58.93Zm12,11.73c-.1,.56-.25,1.02-.25,1.47-.02,10.58,.03,21.15-.06,31.73-.02,2.23,1.23,2.17,2.76,2.17,10.09-.02,20.19,0,30.28-.02,.81,0,1.63-.17,2.38-.25v-35.1H33.51Z"/><path class="uuid-195e0a9d-41d4-43af-a905-c986bfee135c" d="M80.43,21.5v58.93H21.5V21.5h58.93Zm-46.94,11.87v35.29h35.15V33.38H33.49Z"/><path class="uuid-195e0a9d-41d4-43af-a905-c986bfee135c" d="M151.5,80.43h-58.93V21.5h58.93v58.93Zm-47.08-47.2v35.44h35.02c.13-.42,.29-.69,.29-.96,.02-10.86,0-21.72,.06-32.58,.01-1.89-1.05-1.91-2.41-1.91-5.57,.03-11.15,.01-16.73,.01-5.36,0-10.73,0-16.23,0Z"/><path class="uuid-195e0a9d-41d4-43af-a905-c986bfee135c" d="M92.57,151.5v-58.76h35.24v11.33h11.93v-11.5h11.75v35.24h-35.39v-11.6h-11.98v35.28h-11.55Z"/><path class="uuid-195e0a9d-41d4-43af-a905-c986bfee135c" d="M116.25,151.5v-11.57h11.55v11.57h-11.55Z"/><path class="uuid-195e0a9d-41d4-43af-a905-c986bfee135c" d="M139.94,151.5v-11.55h11.55v11.55h-11.55Z"/><path class="uuid-195e0a9d-41d4-43af-a905-c986bfee135c" d="M45.33,127.59v-11.31h11.28v11.31h-11.28Z"/><path class="uuid-195e0a9d-41d4-43af-a905-c986bfee135c" d="M45.32,45.33h11.38v11.38h-11.38v-11.38Z"/><path class="uuid-195e0a9d-41d4-43af-a905-c986bfee135c" d="M127.7,45.34v11.34h-11.39v-11.34h11.39Z"/></svg>