<?xml version="1.0" encoding="UTF-8"?><svg id="uuid-4ebaf589-06ee-48ed-a706-d007a88a09e8" xmlns="http://www.w3.org/2000/svg" viewBox="0 0 70 70"><path d="M3.5,32.56c.45-2.32,.73-4.68,1.37-6.95,2.48-8.85,7.78-15.58,15.61-20.34,1.38-.84,1.68-.75,2.51,.69,2.03,3.51,4.05,7.03,6.07,10.54,.86,1.49,.8,1.69-.68,2.66-5.73,3.75-8.87,9.03-8.86,15.89,0,6.8,3.09,12.06,8.78,15.79,1.6,1.05,1.65,1.19,.68,2.87-2.02,3.51-4.09,7.01-6.07,10.54-.62,1.1-1.23,1.31-2.33,.63-9.81-6.1-15.52-14.81-16.86-26.33-.04-.32-.15-.63-.22-.94,0-1.68,0-3.36,0-5.04Z"/><path d="M66.5,37.88c-.37,1.81-.62,3.66-1.13,5.44-4.42,15.53-20.8,24.2-36.13,19.16-.43-.14-.84-.36-1.32-.57,.72-1.24,1.39-2.4,2.05-3.53,11.92,3.84,22.19-1.1,27.66-8.51,5.86-7.96,6.25-18.88,.95-27.22-5.89-9.26-15.27-12.66-28.11-10.12-.65-1.11-1.32-2.27-2.06-3.54,3.47-1.34,6.93-1.84,10.49-1.72,13.9,.49,24.93,10.19,27.26,23.96,.12,.72,.23,1.45,.34,2.18v4.48Z"/><path d="M49.02,45.37c-5.4,6.06-14.61,6.55-20.7,1.11-6.02-5.37-6.52-14.75-1.12-20.74,5.38-5.96,14.66-6.5,20.66-1.2,6.11,5.39,6.63,14.7,1.16,20.83Zm-19.68-7.78c.89,.76,2.27,.66,3.01-.22,.74-.89,.6-2.24-.33-2.99-.86-.7-2.18-.61-2.9,.2-.76,.86-.66,2.25,.22,3.01Zm14.81-.87c.89,.77,2.22,.66,2.98-.24,.72-.85,.65-2.15-.15-2.9-.85-.79-2.21-.72-3,.16-.8,.88-.72,2.22,.17,2.99Zm-4.91-7.11c.77-.81,.71-2.27-.13-3.03-.84-.76-2.27-.69-3.02,.16-.71,.8-.65,2.17,.12,2.92,.81,.79,2.25,.77,3.03-.05Zm.88,14.75c.79-.89,.7-2.19-.21-2.97-.86-.74-2.1-.68-2.88,.15-.81,.86-.77,2.19,.1,2.99,.87,.79,2.2,.72,2.98-.17Z"/></svg>