<?xml version="1.0" encoding="UTF-8"?><svg id="uuid-aa6b54cd-7578-4656-8cb9-5b67a9c1eff8" xmlns="http://www.w3.org/2000/svg" viewBox="0 0 418 172"><path d="M232.98,104.84c2.54-7.38,4.98-14.47,7.51-21.82-.86-.06-1.45-.14-2.04-.14-11.73,0-23.47-.03-35.2,.04-.96,0-2.11,.45-2.84,1.08-7.73,6.59-15.38,13.26-23.08,19.87-.55,.47-1.36,.92-2.05,.93-6.77,.07-13.53,.04-20.75,.04,8.72-7.29,17.15-14.33,25.58-21.38-.05-.15-.09-.31-.14-.46h-53.89c-.03-.15-.07-.3-.1-.44,15.83-11.04,31.66-22.07,47.49-33.11,.09,.06,.18,.12,.27,.18-3.42,7.26-6.84,14.53-10.4,22.09,.91,.07,1.49,.16,2.07,.16,9.02,0,18.05,.03,27.07-.04,.91,0,2-.41,2.71-1,23.03-19.14,46.02-38.33,69.05-57.47,.7-.58,1.79-.96,2.7-.98,5.07-.09,10.13-.04,15.53-.04-6.83,19.86-13.59,39.49-20.45,59.41h36.27c.16,.22,.31,.44,.47,.66-.43,.21-.92,.35-1.28,.65-3.59,2.92-7.12,5.91-10.75,8.77-.72,.57-1.79,.98-2.71,.99-8.01,.08-16.02,.08-24.03,.01-1.36-.01-2,.42-2.43,1.71-2.1,6.3-4.32,12.55-6.44,18.84-.36,1.07-.85,1.49-2.03,1.48-5.24-.07-10.48-.03-16.1-.03Zm23.82-68.96c-.15-.11-.3-.21-.44-.32-13.79,11.93-27.58,23.86-41.37,35.79,.09,.15,.18,.3,.27,.45,.55,.02,1.1,.07,1.65,.07,8.46,0,16.92-.05,25.38,.05,1.68,.02,2.34-.6,2.85-2.1,3.23-9.54,6.55-19.05,9.84-28.56,.62-1.79,1.22-3.59,1.83-5.38Z"/><path d="M366.06,144.1c0,2.55-.04,4.85,.04,7.15,.01,.36,.57,.86,.97,1.01,.5,.18,1.11,.07,1.68,.07,10.6,0,21.2,0,31.81,0h2.44c-.47,1.71-.74,3.2-1.31,4.56-.18,.43-1.14,.75-1.75,.76-8.12,.05-16.24,.03-24.36,.03-5.47,0-10.94-.03-16.41,.02-1.22,.01-1.67-.3-1.66-1.61,.05-9.7,.05-19.4,0-29.1,0-1.25,.34-1.65,1.62-1.65,13.76,.04,27.52,.04,41.28,0,1.13,0,1.58,.27,1.59,1.5,.02,4.03,.07,4.03-3.95,4.03-9.93,0-19.85,0-29.78,0-.66,0-1.32,0-2.2,0,0,2.36-.04,4.54,.04,6.72,.01,.32,.53,.76,.91,.9,.45,.16,1,.06,1.51,.06,10.55,0,21.09,.02,31.64-.03,1.37,0,1.86,.34,1.83,1.78-.07,3.78,0,3.78-3.7,3.78-9.98,0-19.96,0-29.95,0-.67,0-1.34,0-2.29,0Z"/><path d="M321.02,145.63c0-.92,0-1.52,0-2.11,0-5.41,.04-10.83-.03-16.24-.02-1.46,.38-2.04,1.9-1.92,1.57,.12,3.16,.05,4.73,.02,.8-.01,1.28,.18,1.27,1.12-.03,10.43-.04,20.86-.07,31.3,0,.1-.09,.19-.25,.51-15-8.26-29.99-16.51-45.41-24.99,0,1.16,0,1.81,0,2.46,0,6.71-.04,13.42,.03,20.13,.01,1.4-.4,1.91-1.81,1.81-1.51-.11-3.04-.06-4.57-.01-.96,.03-1.28-.37-1.28-1.3,.02-9.92,.02-19.85,0-29.77,0-.97,.41-1.27,1.32-1.25,2.14,.04,4.29-.06,6.43,.05,.8,.04,1.63,.4,2.34,.79,11.16,6.13,22.3,12.3,33.44,18.45,.52,.29,1.07,.54,1.93,.97Z"/><path d="M183.51,125.4c6.15,0,12.29-.03,18.44,.01,2.97,.02,5.84,.62,8.39,2.22,3.53,2.23,4.8,5.65,4.32,9.61-.6,4.91-3.33,7.89-8.22,8.81-3.02,.57-6.15,.68-9.24,.72-8.01,.1-16.02,.07-24.02,0-1.5-.01-1.98,.46-1.94,1.91,.06,2.54-.03,5.08-.01,7.61,0,.99-.32,1.43-1.37,1.4-1.86-.06-3.72-.05-5.58,0-.99,.03-1.4-.29-1.4-1.35,.03-9.87,.03-19.74,0-29.61,0-1.2,.52-1.38,1.54-1.38,6.37,.03,12.75,.01,19.12,.01v.02Zm3.04,5.51v-.02c-4.56,0-9.13,.05-13.69-.03-1.28-.02-1.71,.4-1.67,1.63,.07,2.36,.09,4.73,.06,7.1-.01,1.27,.43,1.76,1.78,1.73,4.56-.08,9.13-.02,13.69-.03,4.28,0,8.56,.04,12.84-.04,3.51-.07,5.82-1.88,5.97-4.52,.23-3.86-1.52-5.77-5.47-5.81-4.51-.05-9.01-.01-13.52-.01Z"/><path d="M81.6,157.66c-3.44,0-6.4,.01-9.36-.02-.29,0-.61-.26-.85-.47-.3-.25-.6-.54-.8-.87-2.43-4.25-6.12-5.1-10.79-4.85-7.31,.39-14.66,.12-21.99,.08-1.16,0-2.13,.16-2.75,1.21-2.53,4.23-6.22,5.83-11.06,4.96-.82-.15-1.68-.02-3.09-.02,10.27-11.26,20.25-22.2,30.33-33.24,10.09,11.04,20.06,21.96,30.35,33.23Zm-30.35-23.11c-3.4,3.85-6.58,7.45-10.01,11.33h20.05c-3.48-3.93-6.68-7.53-10.05-11.33Z"/><path d="M143.66,152.4c-.74,1.74-1.23,3.19-1.98,4.48-.26,.45-1.18,.75-1.79,.75-8.62,.05-17.24,.04-25.87,.04-3.61,0-7.21-.05-10.82,.03-1.28,.03-1.64-.39-1.63-1.64,.04-9.69,.04-19.39,0-29.08,0-1.27,.38-1.69,1.64-1.63,1.69,.09,3.38,.1,5.07,0,1.28-.07,1.64,.39,1.63,1.64-.05,7.66-.03,15.33-.02,22.99,0,2.33,0,2.34,2.35,2.34,9.75,.02,19.5,.04,29.25,.06,.61,0,1.22,0,2.18,0Z"/><path d="M238.4,141.44c0-4.79,.04-9.57-.03-14.36-.02-1.34,.39-1.8,1.73-1.73,1.85,.1,3.72,.06,5.57,.01,.96-.02,1.27,.36,1.26,1.29-.02,9.91-.02,19.82,0,29.73,0,.94-.31,1.32-1.27,1.29-1.91-.04-3.83-.07-5.74,0-1.19,.05-1.56-.38-1.55-1.56,.05-4.9,.02-9.8,.02-14.7Z"/></svg>