<?xml version="1.0" encoding="UTF-8"?><svg id="uuid-15374923-2ec2-42ef-9fe8-083462dad473" xmlns="http://www.w3.org/2000/svg" viewBox="0 0 418 172"><path d="M222.62,102.72c-2.11-3.66-4.29-6.57-8.7-7.43,2.2-1.25,2.49-3.11,2.46-5.08-.12-6.67-.2-13.34-.51-20.01-.05-1.04-1.2-2.03-1.98-3.26,1.56-1.89,2.06-4.49,1.89-7.31-.17-2.76-.17-5.52-.31-8.28-.13-2.6-2.2-5.1-4.71-5.67-.4-.09-.96,.04-1.29,.27-1.2,.85-2.44,1.69-3.47,2.73-1.06,1.07-2.01,2.57-.96,3.96,.61,.81,2.07,.99,3.32,1.52-.94,2.28-3.34,2.03-5.81,2.1,.12,1.77,.23,3.49,.34,5.2,.59,8.67,1.08,17.35,1.82,26.01,.33,3.9-.89,6.7-4.51,8.54-1.29-3.78-4.67-4.17-8.19-4.89,3.05-1.86,3.23-4.58,2.86-7.59-.5-4.08-.74-8.19-1.35-12.25-.16-1.07-1.29-1.98-2.12-3.19,1.24-1.94,1.46-4.43,1.13-7.12-.96-7.82-1.74-15.66-2.6-23.49-.04-.4-.1-.8-.18-1.2-.72-3.58-3.12-4.59-6.17-2.6-2.44-1.91-.05-3.95,4.88-5.87-.92-.56-1.68-1.03-2.58-1.58,4.62-.87,7.53-3.93,10.06-7.51,1.13-1.59,2.16-3.33,3.58-4.62,1.11-1.01,2.72-1.55,4.2-2.04,.55-.18,1.35,.39,2.04,.62-.01,.23-.03,.46-.04,.69-.64,.15-1.35,.56-1.9,.41-1.59-.44-2.36,.44-2.79,1.63-.47,1.31-.97,2.74-.92,4.09,.2,5.45,.59,10.88,.95,16.32,.26,4.02,.58,8.03,.9,12.38,5.25-5.07,10.79-9.04,17.94-10.62-1.22,2.46-1.13,3.29,.91,4.74,2.13,1.52,4.42,2.81,6.28,3.98-.38,1.8-1,3.47-1.03,5.15-.34,14.35-.59,28.7-.81,43.06-.04,2.49,.19,4.98,.3,7.47,.06,1.29,.44,2.26,1.88,2.73,1.38,.45,2.66,1.22,4,1.86-.22-1.57-.64-3.08-.6-4.57,.07-3.07,3.32-5.29,6.16-4.37,1.55,.5,2.2,1.53,1.63,3.1-.37,1.01-.9,1.95-1.35,2.93-1.43,3.1-.67,5.98,2.09,8,4.01,2.94,11.35,2.82,15.23-.25,1.82-1.44,1.99-2.71,.17-4.08-3.71-2.79-4.15-6.52-3.57-10.67,.4-2.93,.76-5.87,1.18-9.17-5.12,3.89-10.12,7.32-16.73,8.86,1.97-2.3,1.1-3.9-.41-5.22-1.66-1.45-3.47-2.73-4.95-3.88,.38-1.26,.93-2.35,1.01-3.47,.3-4.37,.58-8.75,.57-13.12,0-1.1-1.13-2.19-1.51-2.89,.67-2.34,1.74-4.59,1.88-6.88,.4-6.86,.52-13.74,.58-20.61,.03-3.42-.63-6.72-3.43-9.16,.11-.16,.22-.32,.33-.47,1.19,.76,2.56,1.35,3.53,2.32,1.13,1.12,2.01,2.53,2.83,3.92,2.59,4.36,6.18,7.24,11.53,8.04-3.73,1.16-4.3,4.04-4.51,7.29-.65,9.88-1.4,19.76-2.17,29.63-.2,2.51,.31,4.63,2.38,6.3,.9,.73,1.66,1.09,2.67,.36,1.19-.86,2.59-1.56,3.49-2.66,.67-.82,1.1-2.27,.86-3.24-.17-.7-1.63-1.09-2.67-1.71,1.15-2.22,3.42-1.67,5.69-1.37,.31-2.41,.79-4.73,.83-7.07,.02-.97-.89-1.95-1.5-3.16,2.77-2.47,2.68-6.29,3.14-9.91,.48-3.67,.85-7.36,1.27-11.04,.49-4.35,2.6-6.4,7.04-6.79,.94,4.25,4.84,5,8.27,6.86-6.11,1.36-5.17,6.5-5.86,10.55-2.3,13.33-4.35,26.71-6.48,40.07-.12,.73-.22,1.48-.2,2.21,.07,2.66,1.47,3.7,4.15,3.01,.74,1.88-.24,2.98-1.67,3.96-1.71,1.16-3.49,2.25-5.04,3.6-4.71,4.09-11.98,4.88-18.22,1.86-1.2-.58-2.44-1.18-3.74-1.45-1.89-.39-2.5,.25-2.54,2.22-2.93-.71-3.48-2.69-1.03-5.48-1.21-.16-2.19-.14-3.07-.43-1.09-.36-2.12-.91-3.11-1.5-1.01-.6-1.84-1.6-2.91-1.98-8.1-2.91-16.41-4.57-24.95-2.42-2.73,.69-5.28,2.24-7.75,3.67-1.03,.59-1.82,1.81-2.4,2.91-1.41,2.67-.35,5.15,2.49,6.13,.82,.28,1.69,.42,2.54,.63-.77,2.15-2.73,3.46-5.49,3.41-2.96-.06-5.62-.97-7.22-3.69-1.57-2.66-.81-5.24,.73-7.61,3.68-5.66,9.35-7.88,15.7-8.75,8.18-1.12,16.1,.29,23.91,2.62,.63,.19,1.27,.38,2.4,.73Z"/><path d="M35.16,77.45c1.21-5.03,5.24-7.21,9.24-9.53-.26,.47-.51,.95-.77,1.41-1.58,2.8-1.03,5.25,1.72,6.92,1.19,.72,2.57,1.14,3.87,1.69,3.45,1.46,4.8,3.83,3.31,7.24-1.79,4.11-4.08,8.02-6.34,11.9-2.89,4.94-6.03,9.72-8.93,14.65-.84,1.43-1.34,3.08-1.84,4.68-.6,1.93-.8,3.91,.92,5.43,1.76,1.55,3.9,1.93,6.05,1.09,1.66-.65,3.16-1.67,5.13-2.74-1.22,2.92-2.9,5.04-5.32,6.59-1.47,.94-2.94,1.86-4.43,2.76-1.76,1.07-3.38,.55-4.87-.58-2.78-2.1-4.13-6.04-2.78-9.64,1.51-4.01,3.52-7.83,5.36-11.83-.12-.7-.23-1.68-.46-2.63-.1-.4-.43-.75-.7-1.1-1.02-1.31-2.05-2.61-2.97-4.17,4.27,1.52,7.59-.18,10.59-2.71,2.99-2.52,5.24-5.6,6.21-9.47,.99-3.96-.89-6.56-4.97-6.63-5.91-.11-11.18,2.05-15.69,5.59-13.74,10.76-17.9,32.24-6.91,46.71,2.01,2.65,4.45,5.12,7.12,7.1,2.92,2.17,6.57,1.61,9.95,.99,1.73-.32,3.35-1.16,5.46-1.51-1.49,2.15-2.98,4.29-4.69,6.75,2.37,.42,4.8,1.05,7.27,1.27,10.23,.9,19.53-1.5,27.41-8.34,2.64-2.29,4.64-5.07,5.03-8.72,.34-3.2-.69-4.39-3.85-4.44-.27,0-.54,0-.81,.01-1.46,.03-3.02,.05-3.35-1.8-.3-1.69,.98-2.53,2.28-3.19,3.99-2.04,7.82-.23,8.86,4.11,.74,3.09-.09,5.99-.92,8.92-1.13,4-2.23,8-3.17,12.05-1.03,4.42-3.56,7.72-7.02,10.48-.27-.95-.31-2.32-.76-2.47-.75-.25-1.81,.16-2.64,.53-7.22,3.22-14.71,5.25-22.66,5.16-7.06-.08-13.78-1.72-19.86-5.35-4.71-2.81-9.42-3.76-14.52-1.11-.13-.15-.26-.31-.39-.46,1.68-2,3.37-3.99,5.17-6.13-.03-.04-.17-.34-.38-.57-12.06-13.44-13.65-34.37-3.22-50.72,3.62-5.67,7.97-10.69,13.36-14.76,3.4-2.57,3.84-2.73,10.95-3.4Z"/><path d="M383.7,143.68c1.13,1.2,1.84,1.96,2.66,2.84,3.13-4.88,3.81-10.06,1.92-15.33-3.75-10.43-11.15-17.05-21.88-19.9-.19-.05-.38-.12-.56-.2-.06-.02-.1-.09-.41-.36,.8-.58,1.45-1.29,2.26-1.61,2.5-.99,4.25-2.7,5.57-5.02,1.5-2.63,3.18-5.16,4.83-7.7,1.22-1.89,2.05-3.81,1.02-5.7,4.94,1.2,9.98,2.45,15.03,3.65,2.22,.53,4.53,.78,6.69,1.49,2.21,.73,4.27,1.88,6.35,2.82-.81,1.09-1.77,1.85-1.96,2.78-.2,.95,.07,2.24,.61,3.07,2.04,3.15,4.26,6.18,6.45,9.24,.46,.64,1.04,1.2,1.79,2.05-2.52,.04-4.61,.55-6.07,2.45-1.33,1.73-3.27,3.23-1.85,6.26-1.15-.76-1.89-1.26-2.63-1.75-2.01-1.34-4.19-1.91-6.63-2.1-2.4-.19-4.75-1.01-7.12-1.56,.03-.27,.05-.54,.08-.81,.59-.09,1.2-.15,1.78-.28,4.24-.98,6.39-4.04,7.53-7.91,.99-3.36-.1-6.25-2.63-8.59-2.48-2.29-6.63-3.04-8.9,1-1.05,1.87-2.38,3.59-3.65,5.34-1.45,2-1.65,4.15-.59,6.29,.95,1.92,2.22,3.68,3.28,5.55,2.83,4.96,6.11,9.72,8.32,14.94,3.83,9.06,1.89,15.66-5.53,21.97,.66,.98,1.32,1.97,1.99,2.96-3.62-1.35-7.05-.5-10.59-.06-15.15,1.9-31.17-9.65-34.18-24.47-1.18-5.8,.08-10.96,4.2-15.32,.88-.93,1.85-1.78,2.69-2.74,1.74-1.99,3.42-4.02,5.22-6.16,1.01,3.25,4.23,3.47,7.24,4.64,5.4,2.11,10.83,4.66,14.56,9.44,1.23,1.57,2.25,3.57,2.6,5.51,.45,2.49-1.87,4.08-4.36,3.42-2.72-.73-4.33-3.54-3.37-5.87,1.74-4.21-.87-8.54-5.59-8.7-2.1-.07-4.46,.52-6.32,1.52-7.07,3.81-11.51,13.52-9.9,20.95,2.38,11,16.96,16.95,26.31,10.64,2.73-1.84,3.99-4.66,3.71-8.7Z"/><path d="M177.9,98.89c-.04-3.69-.35-4.17-3.56-5.43-1.75-.69-3.49-1.38-5.58-2.21,1.42,5.82,1.35,11.97,6.92,16.07-.55,.27-1.17,.56-1.77,.88-.37,.2-.92,.4-1.01,.71-.55,1.94-1.96,2.4-3.76,2.3-1.31,6.51-1.03,13.8-8.59,17.06,5.04-5.7,4.23-12.45,2.88-18.96-2.22-10.73-4.95-21.35-7.63-31.97-.28-1.13-1.68-1.97-2.73-3.13,.85-1.87,1.03-4.2,.35-6.62-.74-2.66-1.37-5.34-2.12-7.99-.31-1.09-.72-2.18-1.24-3.18-1.63-3.15-3.23-3.53-6-1.48-1.21-.79-1.12-1.79-.24-2.68,.99-1,2.15-1.83,3.2-2.76,1.6-1.41,3.17-2.86,4.89-4.41,5.13,1.23,7.22,3.04,8.93,8.24,2.03-3.79,6.58-6.01,4.99-11.34,7.34-.11,12.75,5.8,19.49,5.95-.2,1.36-.64,2.58-.5,3.73,1.37,11.02,2.82,22.03,4.31,33.03,.16,1.18,.77,2.31,1.25,3.69-3.36,.8-5.39,3.61-7.59,6.36-1.31,1.64-3.24,2.79-4.89,4.17Zm-15.41-37.75c.03,.31,.04,.63,.11,.95,1.37,6.38,2.97,12.71,4.04,19.14,.88,5.27,4.05,7.97,8.78,9.36,.51,.15,1.31-.02,1.75-.35,2.34-1.73,2.72-4.11,2.25-6.85-1.63-9.41-3.26-18.82-4.72-28.25-.48-3.11-2.26-4.75-5.03-5.6-.49-.15-1.29-.13-1.62,.17-1.27,1.18-2.52,2.41-3.55,3.8-.82,1.11-1.12,2.51-.11,3.75,.97,1.19,2.16,.75,3.32,.28,.06-.02,.18,.13,.27,.2-.97,2.26-1.32,2.47-5.5,3.41Z"/><path d="M67.6,99.59c2.81-2.6,4.72-5.51,4.75-9.39,3.42-.18,6.64-.24,9.83-.57,1.99-.21,4-.64,5.88-1.3,2.38-.84,2.75-2.14,1.63-4.41-.33-.66-.65-1.34-1.04-1.96-2.02-3.19-2.55-6.48-.21-10.56-2.91,.16-5.37,.09-7.74,.48-4.12,.67-7.9,2.28-10.82,5.4-2.48,2.65-2.06,4.48,1.26,6.01,2.71,1.25,3.03,3.77,.72,5.7-1.67,1.4-4.47,1.72-6.27,.71-1.72-.96-2.39-2.69-1.75-5.31,1.62-6.65,6.2-10.68,12.2-13.33,3.7-1.63,7.6-2.08,11.63-2.04,2.51,.03,5.05-.4,7.53-.88,1.82-.35,3.41-.45,4.87,1.04-3.14,.57-3.98,1.76-2.81,4.78,1.86,4.82,3.97,9.56,6.1,14.27,2.19,4.84,4.5,9.63,6.86,14.39,.77,1.55,1.69,3.09,2.83,4.39,1.82,2.07,2.98,1.93,4.69-.23,1.4,.84,1.17,1.98,.48,3.06-.84,1.3-1.9,2.45-2.73,3.75-.75,1.17-1.33,2.45-2.1,3.92-3.9-.69-7.74-1.79-9.58-6.67-1.95,6.4-4.25,11.98-8.6,16.68-.57-2.77-1.32-3.53-4.02-3.88-2.06-.27-4.14-.35-5.92-.49-.58-1.45-.94-2.87-1.68-4.07-3.28-5.33-6.69-10.58-9.98-15.91-1.38-2.23-3.08-3.73-6-3.57Zm32.23,4.35c-1.34-4.65-3.69-7.77-7.16-9.5,.82-1.72,1.52-3.49-.41-5.04-3.77,2.61-8.26,2.71-12.82,3.28,2.73,4.71,5.31,9.19,7.91,13.65,1.45,2.5,2.89,5,4.41,7.46,1.24,2.01,4.38,3.78,5.94,2.81,1.25-.78,1.74-2.78,2.56-4.24,.06-.11,.12-.27,.1-.39-.3-1.31-.33-2.84-1.06-3.83-.38-.52-2.04-.09-3.24-.09-.29-2.47,1.89-3.2,3.78-4.11Z"/><path d="M273.03,51.62c6.1,.59,12.04-1.37,18.1-2.57,3.05-.6,6.12-.72,9.2,.18-1.42,2.47-1.37,3.88,1.05,5.84,2.6,2.1,5.54,3.77,8.36,5.6,.67,.43,1.42,.74,1.71,.9-1.27,1.66-2.81,3.19-3.74,5.03-.98,1.94-1.79,4.19,.47,6.56-.98-.21-1.52-.3-2.05-.44-2.63-.67-5.1-.44-7.69,.55-1.98,.76-4.24,.78-6.43,.84,4.63-2.77,4.92-7.51,5.3-11.81,.32-3.64-4.46-7.92-8.2-8.27-2.22-.21-3.47,.6-4.01,2.77-.59,2.42-1.47,4.86-1.48,7.29,0,1.94,.68,4.17,1.79,5.77,4.01,5.8,9.68,9.64,16.03,12.53,.6,.27,1.22,.51,1.86,.78-2.75,2.92-5.32,13.71-3.84,16.9-6.38-1.3-12.15,.88-18.05,2.24-1.73,.4-3.59,.26-4.72,.32-.97-2.05-1.52-3.78-2.51-5.19-1.47-2.08-3.25-3.95-4.92-5.89-1.9-2.23-2.87-4.83-3.14-7.73-.6-6.64,6.52-12.05,12.64-9.43,1.4,.6,2.57,2.06,3.45,3.39,.41,.61,.21,2.19-.32,2.71-.62,.61-1.98,.91-2.87,.71-1.11-.25-2.12-1.08-3.09-1.78-1.58-1.14-3.21-2.25-5.17-1.21-2,1.06-2.23,3.12-2.13,5.11,.26,5.28,5.99,11.93,11.16,13.1,6.25,1.41,12.04-4.5,11.14-11.34-.44-3.33-1.88-6.19-4.26-8.51-4.24-4.13-9.21-6.71-15.05-6.87,.6-5.89,3.8-11.61,1.4-18.1Z"/><path d="M368.53,77.32c.07,10.1-4.74,15.64-13.81,15.85,4.23-3.05,4.92-6.39,1.83-10.79-1.23-1.75-2.98-3.28-4.8-4.44-1.78-1.15-3.4-.45-4.34,1.47-4.8,9.85-9.57,19.72-14.3,29.61-1.18,2.46-.49,4.56,1.75,6.16,4.13,2.94,11.42,3.13,15.47,.16,1.07-.79,2.1-2.25,2.26-3.51,.21-1.74-1.53-2.52-2.98-3.12-1.18-.49-2.59-.6-3.55-1.34-.89-.68-1.33-1.97-1.97-2.99,.98-.58,1.9-1.53,2.94-1.66,3.21-.43,6.37,1.75,7.55,4.89,1.5,3.98,.75,7.22-2.27,9.38-2.7,1.94-5.79,2.86-9.09,2.94-2.42,.06-4.84-.23-7.26-.19-2.43,.04-4.85,.31-7.5,.5-.86-4.58-3.16-8.99-7.03-11.82,1.1-1.49,2.38-2.81,3.18-4.38,1.4-2.75,2.45-5.68,3.78-8.47,.88-1.85,1.62-3.58-.4-5.28,2.84-1.44,4.4-3.61,5.41-6.29,1.11-2.95,2.34-5.86,3.44-8.82,.27-.73,.35-1.58,.33-2.38-.06-2.54-1.14-3.43-3.87-3.34,.05-1.55,.44-2.12,2.12-2.03,2.47,.13,4.94,.52,7.39,.9,3.65,.56,7.29,1.19,10.92,1.85,.43,.08,.9,.42,1.18,.78,2.39,3.15,4.71,6.35,7.14,9.47,.22,.28,1.2,.3,1.6,.06,1.65-.97,3.22-2.09,4.89-3.21Z"/><path d="M121.23,108.57c2.47-2.51,2.13-5.09,.94-7.81-1.51-3.45-2.96-6.93-4.32-10.44-.7-1.79-1.47-3.36-3.67-3.28,.68-7.03-2.86-12.54-6.01-18.07-1.65-2.9-3.79-2.83-5.98-.38-1.33-.7-1.37-1.73-.57-2.79,.85-1.12,1.87-2.11,2.78-3.19,1.33-1.58,2.63-3.19,4.18-5.08,3.84,.89,8.36,1.34,9.79,6.99,3.51-6.52,7.75-11.88,13.85-15.39,.17,1.26-.01,2.63,.57,3.46,.63,.9,1.92,1.42,3.01,1.87,1.48,.6,3.06,.98,4.22,1.34,.26,2.04,.35,3.92,.79,5.73,.46,1.87,1.45,3.49,3.86,3.9-5.64,1.94-7.44,6.54-8.73,11.57-.55,2.15-1.3,4.26-3.68,5.43,.45-2.05,1.01-3.94,1.27-5.87,.56-4.06,.22-8.07-1.41-11.88-.98-2.3-2.47-4.2-4.93-5.03-.54-.18-1.54-.21-1.79,.11-1.19,1.51-2.45,3.07-3.17,4.82-.37,.88-.01,2.68,.67,3.22,.72,.57,2.23,.13,3.48,.13-.33,2.7-2.58,3.28-4.94,3.94,.14,.53,.23,1.03,.41,1.5,3.03,8.06,6.08,16.1,9.09,24.17,.95,2.54,1.99,4.92,4.73,5.23-1.63,2.79-3.2,5.49-4.89,8.38-2.42-3.54-5.87-3.01-9.55-2.56Z"/><path d="M314.59,108.43c-3.12,.99-6.11,1.93-9.31,2.94,.46-4.16-2.59-5.84-5.41-8.03,3.68-.51,4.96-2.97,5.88-5.87,1.02-3.2,2.19-6.35,3.3-9.53q.99-2.85-.48-5.36c2.12-1.26,3.43-3.15,4.22-5.44,1.07-3.11,2.06-6.26,3.2-9.35,1.08-2.92,1.79-5.72-.75-7.71,3.51-.85,7.08-1.71,10.74-2.6,.1,4.72,3.82,6.34,6.98,8.85-4.04-.11-5.64,2.2-6.83,5.36-3.76,10-7.67,19.95-11.57,29.9-.97,2.47-1.66,4.87,.02,6.83Z"/><path d="M320.33,53.05c.92-1.45,1.85-2.78,2.62-4.2,.48-.88,.72-1.88,1.03-2.84,1.94-6.04,6.49-6.27,11.5-3.86,1.89,.91,3.41,2.38,3.69,4.75-.18-.01-.34,.02-.36-.03-1.82-3.29-4.03-2.73-5.57,.69-1.32,2.94-1.83,6.02-.83,9.62-.96-.59-1.74-.84-2.14-1.37-1.46-1.93-3.34-2.25-5.62-2.12-1.55,.09-3.14-.45-4.33-.65Z"/></svg>