<?xml version="1.0" encoding="UTF-8"?><svg id="uuid-3b5f4d47-1d43-47d9-ab00-0bf9313aa1f1" xmlns="http://www.w3.org/2000/svg" viewBox="0 0 418 172"><path d="M251.39,6.5c1.6,.71,3.27,1.29,4.77,2.15,4.48,2.59,7.02,6.64,7.09,11.71,.24,17.35,.23,34.7,.28,52.05,.04,13.6,.03,27.21,0,40.81-.02,12.57-.1,25.14-.14,37.72-.02,6.54-4.68,12.53-11.03,14.16-.34,.09-.65,.27-.98,.4h-83.04c-6.65-1.16-10.93-5.09-12.94-11.41-.59-1.85-.65-3.9-.72-5.87-.13-3.23-.1-6.47-.1-9.71-.05-35.61-.11-71.22-.14-106.83,0-3.31,.06-6.62,.16-9.93,.25-8.21,5.04-13.58,13.19-14.85,.49-.08,.96-.27,1.44-.41,27.39,0,54.77,0,82.16,0Zm-93.57,78.57c0,3.9,0,7.8,0,11.7,.05,17.66,.09,35.32,.15,52.98,.03,6.9,5.78,12.56,12.68,12.58,19.87,.04,39.75,.1,59.62,.14,6.03,.01,12.06,.03,18.09-.09,6.48-.13,11.61-4.84,11.91-11.27,.34-7.12,.37-14.26,.38-21.4,.04-30.69,.03-61.38,0-92.07,0-5.15-.07-10.3-.23-15.44-.24-7.58-4.89-12.15-12.41-12.23-12.21-.13-24.43-.3-36.64-.28-14.2,.02-28.4,.16-42.6,.37-5.71,.08-10.78,5.51-10.81,11.21-.02,3.24-.13,6.47-.14,9.71-.01,18.03,0,36.06,0,54.1Z"/><path d="M247.72,126.89h-75.91V44.06h75.91V126.89Zm-2.22-2.19V45.96h-71.77V124.7h71.77Z"/><path d="M221.92,33.55c2.05-2.33,2.21-12.19,.35-15.03,3.06,0,6.06-.23,9.02,.05,4.16,.39,6.53,3.58,6.41,8.05-.11,4.04-2.52,6.61-6.79,6.88-2.89,.19-5.8,.04-8.99,.04Zm4.78-14.14c0,3.83-.09,7.5,.04,11.15,.07,2.04,1.28,2.7,3.17,1.88,1.74-.76,2.81-2.12,2.91-4.07,.06-1.25,.07-2.5,0-3.75-.17-3.4-2.49-5.42-6.12-5.21Z"/><path d="M220.13,33.59c-3.45,.52-3.63,.43-5.17-2.45-.63-1.16-1.19-2.39-2-3.41-.55-.69-1.49-1.07-2.26-1.59-.22,.15-.44,.29-.66,.44,.27,2.28,.54,4.57,.82,7.01h-5.17c1.88-2.43,2-12.27,.24-15.06,2.67,0,5.33-.24,7.92,.1,1.25,.16,2.77,1.15,3.44,2.21,.83,1.33,.39,2.94-.94,4.17-.38,.35-.61,1.38-.38,1.8,1.27,2.28,2.72,4.47,4.16,6.78Zm-9.77-8.21c2.83-.14,3.99-1.16,3.82-3.24-.18-2.24-1.19-2.95-3.82-2.61v5.85Z"/><path d="M174.42,22.53c.6,3.6-1.15,7.51,1.56,11.05h-3.87c2.11-2.75,2.09-12.52,.05-14.77,2.99-.96,3.83-.67,5.48,1.84,1.49,2.26,2.99,4.52,4.72,6.73,.19-2.97,1.04-5.95-.66-8.86h2.87c-.27,1.75-.72,3.54-.8,5.35-.13,3.21-.04,6.43-.04,9.64l-.91,.34c-2.62-3.84-5.25-7.69-7.87-11.53-.18,.07-.36,.13-.54,.2Z"/><path d="M191.46,28.62c-.4,1.64-1.97,3.2,.72,4.96h-3.9c1.72-4.59,3.47-9.35,5.32-14.08,.19-.49,1.09-1.07,1.55-.99,.63,.11,1.43,.7,1.67,1.29,1.33,3.34,2.47,6.76,3.77,10.12,.46,1.2,1.18,2.31,1.87,3.62h-6.09c1.87-1.26,1.3-2.72,.6-3.9-.35-.59-1.5-.84-2.33-.98-1-.16-2.04-.04-3.17-.04Zm2.9-6.56c-.19-.03-.38-.06-.57-.1-.57,1.67-1.13,3.35-1.76,5.22h4.15c-.65-1.83-1.23-3.48-1.82-5.13Z"/><path d="M242.47,150.13c-3.71,0-6.06-2.39-6.02-6.1,.05-4.24,2.32-6.58,6.33-6.54,3.77,.04,5.93,2.38,5.96,6.43,.02,3.68-2.53,6.21-6.26,6.2Zm2.79-6.37c-.31-1.46-.49-2.92-.97-4.29-.2-.56-1.01-1.2-1.58-1.23-.56-.03-1.44,.52-1.7,1.05-1.36,2.83-1.58,5.79-.24,8.69,.29,.62,1.19,1.43,1.7,1.36,.7-.1,1.61-.83,1.88-1.51,.51-1.26,.62-2.69,.9-4.06Z"/><path d="M200.85,137.67c2.18,.12,4.45,.06,6.66,.41,2.66,.43,3.45,2.61,1.72,4.64-.81,.94-.73,1.57-.11,2.47,.95,1.37,1.81,2.8,2.74,4.26-2.03,.65-3.3,.08-4.25-1.82-.69-1.37-1.1-3.28-3.58-3.35,.15,1.86,.29,3.55,.44,5.38h-3.61v-11.99Zm3.31,5.67c2.08-.02,3.03-.91,2.95-2.69-.08-1.78-1.22-2.31-2.95-2.07v4.76Z"/><path d="M190.97,137.49c3.8-.05,5.94,2.12,5.96,6.03,.02,4.08-2.19,6.46-6.06,6.51-3.58,.05-5.95-2.39-5.96-6.13,0-4.25,1.98-6.36,6.05-6.41Zm-2.81,6.65c.22,1.09,.26,2.39,.77,3.47,.35,.75,1.32,1.66,2.02,1.67,.64,0,1.79-1.06,1.85-1.74,.24-2.56,.27-5.17,.07-7.74-.05-.65-1.3-1.75-1.86-1.67-.8,.11-1.82,.98-2.13,1.77-.5,1.25-.49,2.71-.72,4.24Z"/><path d="M232.55,150.01c-1.16-1.44-2.36-2.85-3.48-4.32-1.16-1.52-2.25-3.09-3.54-4.87v8.76h-1.73c.33-3.94,.68-7.75-.22-11.61,2.75-.64,2.98-.55,4.81,1.95,1.13,1.54,2.29,3.06,3.45,4.58,.06,.08,.24,.08,.73,.23-.22-2.39-.42-4.63-.63-6.9h2.06c-1.44,3.85-.1,7.9-.8,11.78-.21,.14-.43,.27-.64,.41Z"/><path d="M241.24,18.48h4.78c-1.92,3.02-1.73,12.9,.49,15.09h-6.28c2.22-2.21,1.36-4.89,1.4-7.39,.04-2.49-.24-4.99-.4-7.7Z"/><path d="M176.16,149.99c.22-3.83,.44-7.6,.7-12.09-1.9,.75-3.15,1.25-4.42,1.75v-1.92h10.84c.06,.73,.11,1.42,.16,2.04-1.26-.55-2.44-1.07-3.64-1.6v11.82h-3.64Z"/><path d="M219.89,149.71h-4.76c1.4-2.25,1.23-9.96-.36-12.05h5.13c-1.29,2.23-1.37,10.47-.02,12.05Z"/><path d="M211.55,118.89c.24-1.11,.16-1.95,.55-2.33,2.8-2.76,2.52-6.33,2.52-9.72,0-15.44-.1-30.89-.3-46.33-.02-1.41-.97-2.82-1.54-4.2-.37-.9-.84-1.76-1.42-2.97,5.11,0,9.73-.02,14.34,.01,1.61,.01,3.24,.09,4.84,.27,4.91,.57,7.7,3.4,8.02,8.35,.28,4.33,.45,8.67,.45,13,0,10.81-.08,21.62-.23,32.44-.02,1.73-.45,3.5-.93,5.18-.89,3.12-3.09,5.26-6.24,5.5-6.57,.5-13.17,.56-20.06,.81Zm8.86-34.04s.05,0,.07,0c0,4.34-.05,8.67,.01,13.01,.06,4.55,.04,9.12,.48,13.64,.13,1.39,1.4,3.39,2.61,3.83,4.01,1.46,7.31-.97,7.72-5.21,.08-.8,.15-1.61,.15-2.42,0-10.88,.08-21.75-.03-32.63-.05-5.13-.35-10.27-.77-15.38-.21-2.56-1.35-3.41-3.89-3.63-.95-.08-1.91-.08-2.86,0-2.44,.2-3.48,1.37-3.48,3.87,0,8.3,0,16.61,0,24.91Z"/><path d="M201.13,95.11c0-11.3,0-22.47,0-33.65,0-2.08-.61-3.86-2.1-5.39-.5-.51-.66-1.36-1.1-2.35h9.95c-.35,.76-.61,1.41-.94,2.03-.61,1.17-1.77,2.3-1.79,3.47-.21,10.22-.26,20.45-.29,30.67-.02,6.11,.09,12.21,.15,18.32,.03,2.95-.02,5.9,2.48,8.14,.46,.41,.48,1.3,.8,2.24-1.71,0-3.14-.03-4.58,0-1.33,.04-1.87-.72-2.34-1.85-5.67-13.4-11.39-26.77-17.09-40.15-.3-.71-.63-1.41-1.43-2.06,0,3.04,0,6.08,0,9.12,.02,8.54,.03,17.07,.08,25.61,.01,2.72,.38,5.27,3.04,6.9,.58,.36,.73,1.41,1.1,2.2h-10.66c.69-1.1,.97-1.87,1.51-2.35,1.73-1.54,2.4-3.49,2.42-5.71,.11-15.82,.31-31.64,.19-47.45-.02-2.15-1.64-4.29-2.56-6.42-.36-.83-.84-1.61-1.53-2.89,3.13,0,5.75-.11,8.35,.09,.52,.04,1.13,1.18,1.41,1.92,4.68,12.36,9.31,24.75,13.96,37.12,.3,.81,.64,1.6,.98,2.42Z"/></svg>