<?xml version="1.0" encoding="UTF-8"?><svg id="uuid-780916be-dae6-425f-9d2b-88b1f0fe8033" xmlns="http://www.w3.org/2000/svg" viewBox="0 0 418 172"><path d="M191.4,76.62c-8.85-1.37-14.09,4.02-17.77,10.64-3.93,7.07-6.88,14.7-9.92,22.22-2.94,7.28-5.5,14.72-8.12,22.12-.61,1.73-1.53,2.4-3.37,2.49-4.47,.22-8.93,.7-13.39,1.04-.97,.07-1.96,.01-3.29,.01,7.42-21.02,15.48-41.41,22.53-62.15-.33-.2-.67-.4-1-.6-.9,.91-1.89,1.75-2.69,2.74-16.46,20.19-32.93,40.39-49.32,60.64-1.46,1.81-3,2.61-5.31,2.67-6.26,.16-6.19,.24-6.76-5.92-.86-9.28-1.82-18.56-2.75-27.83-.05-.53-.21-1.05-.18-.89-2.7,4.99-4.95,10.9-8.66,15.68-13.53,17.41-31.13,27.03-53.71,26.08-10.32-.44-18.95-7.08-21.05-16.21-1.42-6.18-.26-12.19,1.63-18.08,4.58-14.28,14.2-24.5,26.6-32.36,9.75-6.18,20.35-9.5,31.97-8.88,8.93,.48,16.29,3.9,21.4,11.91-.23-3.98-.47-7.95-.72-12.25,6.18-.52,12.14-1.03,18.63-1.57,1.07,12.65,2.13,25.15,3.25,38.33,.96-1.05,1.62-1.7,2.2-2.42,9.78-12.2,19.58-24.38,29.3-36.63,1.29-1.62,2.67-2.45,4.77-2.6,10.21-.73,20.42-1.61,30.63-2.42,.7-.06,1.41,0,2.28,0-.63,2.33-1.21,4.5-2,7.43,7.27-6.47,14.02-12.42,24.7-10.25-2.91,4.82-5.56,9.15-8.15,13.51-.69,1.16-1.21,2.43-1.81,3.65,0,0,.09-.1,.09-.1ZM38.87,128.72c15.46-.12,30.03-12.71,31.95-27.58,1.02-7.9-3.83-13.59-11.78-13.82-15.3-.43-29.53,11.07-32.65,26.37-1.88,9.25,2.98,15.1,12.47,15.03Z"/><path d="M191.4,76.62s-.09,.1-.09,.1c9.99-10.76,21.82-18.26,36.62-20.33,9.04-1.26,16.95,.54,22.4,9.3,1.29-3.49,2.46-6.6,3.6-9.72,3.11-8.5,6.27-16.98,9.26-25.51,.68-1.95,1.66-2.63,3.7-2.74,5.28-.29,10.54-.86,16.19-1.34-.74,2.41-1.3,4.57-2.07,6.66-11.15,30.26-22.34,60.5-33.45,90.76-.66,1.79-1.52,2.68-3.46,2.79-5.36,.32-10.71,.78-16.52,1.21,.58-2.18,1.04-3.89,1.67-6.23-2.32,1.5-4.18,2.68-6.02,3.88-7.48,4.87-15.8,6.68-24.57,6.19-11.3-.64-20.01-9.32-20.38-20.88-.16-5.09,.82-10.38,2.21-15.32,2-7.11,6.27-13.14,10.93-18.84Zm19.42,38.57c9.39,.01,19.98-5.31,25.57-12.87,3.64-4.94,6.36-10.27,6.55-16.55,.25-8.23-4.72-13.21-12.97-13.16-14.77,.09-28.55,11.57-31.87,26.54-2.15,9.7,2.87,16.04,12.73,16.05Z"/><path d="M398.07,100.83c-9.17,9.58-19.99,14.92-32.34,17.16-7.49,1.36-15.07,2.01-22.53-.33-10.98-3.43-16.69-12.26-15.58-23.68,1.24-12.75,7.36-23,16.19-31.82,10.83-10.83,23.59-17.81,39.2-18.56,3.08-.15,6.25-.04,9.28,.49,12.8,2.24,20.15,11.53,19.68,25.29-.14,4.22-1.45,8.42-2.51,12.56-.23,.88-1.69,1.96-2.67,2.04-18.2,1.6-36.42,3.08-54.64,4.53-4.95,.39-6.43,2.77-4.3,7.38,1.71,3.73,4.82,5.65,8.79,6.17,8.89,1.16,16.83-1.5,24.1-6.37,1.74-1.16,3.04-1.38,4.94-.45,3.91,1.94,7.95,3.6,12.38,5.58Zm-5.68-28.65c-.49-4.6-2.13-7.77-5.71-9.74-4.74-2.61-9.73-2.06-14.64-.84-7.73,1.92-13.66,6.45-18.18,12.85,.08,.28,.17,.56,.25,.83,12.65-1.02,25.3-2.05,38.28-3.1Z"/><path d="M341.67,48.76c-5.26,14.6-10.21,28.63-15.39,42.57-2.73,7.35-6.85,13.94-12.36,19.57-11.29,11.55-25.11,15.98-40.96,13.73-10.32-1.47-16.76-10.64-14.86-20.94,.99-5.36,2.47-10.69,4.28-15.84,3.73-10.6,7.85-21.05,11.74-31.59,.54-1.46,1.22-2.19,2.89-2.29,5.46-.32,10.91-.81,16.87-1.27-1.58,4.56-3.01,8.76-4.48,12.95-3.74,10.59-7.65,21.13-11.2,31.79-2.11,6.33,1.24,10.6,7.91,10.63,7.67,.03,13.89-3.1,17.57-9.76,3.16-5.72,5.55-11.9,7.92-18.02,3.57-9.2,6.87-18.51,10.17-27.81,.58-1.63,1.41-2.3,3.11-2.4,5.37-.34,10.73-.82,16.79-1.31Z"/></svg>