<?xml version="1.0" encoding="UTF-8"?><svg id="uuid-0fdb5084-d6ac-453f-bccb-ac99913b108f" xmlns="http://www.w3.org/2000/svg" viewBox="0 0 418 172"><path d="M413.76,113.78v11.25H93.49v-11.25H413.76Z"/><path d="M73.94,36.62h10.99c.15,2.32,.31,4.67,.51,7.78,10.68-7.83,21.95-10.42,34.22-6,7.61,2.74,13.48,7.73,17.64,14.64,8.12,13.5,5.67,31.16-5.68,42.13-10.24,9.9-28.72,14.43-46.19,1.39v39.71h-11.49V36.62Zm12.44,33.95c0,11.87,9.82,21.67,21.64,21.6,11.83-.07,21.65-10.02,21.5-21.8-.14-11.71-9.78-21.26-21.5-21.31-11.95-.05-21.65,9.59-21.65,21.51Z"/><path d="M17.36,64.44h52.91c4.65,15.62-7.3,34.11-24.68,38.6-16.34,4.23-35.82-5.94-38.98-20.7,4,0,7.94-.21,11.84,.12,1.26,.11,2.52,1.53,3.58,2.56,5.7,5.58,12.4,7.83,20.23,6,7.66-1.79,13.25-7.19,15.44-14.99-1.59-.09-3.05-.24-4.51-.24-15.04-.02-30.07-.11-45.11,.06-3.4,.04-4.32-1.11-4.41-4.35-.41-15.94,10.05-30.08,25.43-34.06,14.92-3.86,31,3.27,38.24,16.96,.45,.85,.81,1.75,1.55,3.38-6.55-.53-12.26,1.77-18.01-3.67-10.99-10.39-29.99-4.47-33.51,10.33Z"/><path d="M198.74,102.38v-8.36c-8.92,7.11-18.26,9.92-28.74,7.39-7.45-1.8-13.4-6.01-17.96-12.12-9.72-13.04-8.73-31.51,2.27-43.46,11.1-12.06,26.31-13.43,42.65-3.56,.2-1.87,.39-3.59,.61-5.58h11.88v5.14c0,18.28,0,36.56,0,54.84q0,5.73-5.74,5.72c-1.53,0-3.05,0-4.97,0Zm-1.36-33.51c-.02-11.68-8.94-20.96-20.1-20.91-11.08,.05-20.17,9.52-20.15,21,.02,11.45,9.18,20.93,20.23,20.93,11.12,0,20.02-9.35,20.01-21.02Z"/><path d="M414.35,70.19c.02,18.64-15.13,33.86-33.75,33.92-18.58,.05-33.77-15.14-33.81-33.81-.04-18.63,15.11-33.87,33.71-33.9,18.57-.04,33.83,15.2,33.85,33.8Zm-12.67,.13c.04-11.62-9.36-21.11-20.99-21.2-11.55-.09-21.28,9.44-21.38,20.92-.1,11.7,9.61,21.49,21.31,21.45,11.59-.04,21.02-9.52,21.06-21.17Z"/><path d="M342.66,60.42c-3.85,0-7.65,.19-11.41-.12-1.09-.09-2.26-1.43-3.07-2.45-6.27-7.99-15.95-10.79-25.08-7.15-9.08,3.62-14.3,12.53-13.15,22.45,1.06,9.15,8.52,16.76,18.29,18.07,8.29,1.11,15.2-1.95,19.92-8.79,1.92-2.78,3.91-3.6,6.97-3.38,2.64,.19,5.3,.04,8.02,.04-2.19,14.17-18.65,26.11-33.89,24.97-18.56-1.39-32.25-15.99-32.12-34.26,.13-17.48,14.03-32.09,31.74-33.36,15.26-1.09,31.87,10.48,33.78,23.98Z"/><path d="M217.12,36.63h12.96c.12,2.13,.23,4.07,.38,6.69,9.28-6.25,18.85-8.91,29.06-3.24,7.31,4.06,12,10.43,15.91,18.38-4.22,0-7.73,.14-11.22-.09-1.03-.07-2.24-.96-2.95-1.82-5.33-6.42-11.84-8.7-18.76-6.39-6.81,2.27-12.15,9.73-12.2,17.32-.07,10.48-.02,20.96-.02,31.43,0,1.53,0,3.06,0,4.89h-13.16V36.63Z"/><path d="M3.95,125.13v-11.47h62.76v11.47H3.95Z"/></svg>