<?xml version="1.0" encoding="UTF-8"?><svg id="uuid-ccfce5f4-808a-4e79-94a1-ccbe433eecad" xmlns="http://www.w3.org/2000/svg" viewBox="0 0 418 172"><path d="M304,104.32c-11.02,2.91-22.04,5.82-33.18,8.77-1.27-3.36-2.51-6.66-3.8-10.06-1.26,.33-2.48,.65-3.69,.97-9.42,2.52-18.85,5.04-28.27,7.56-1.33,.35-2.65,.73-3.99,1.03-.64,.15-.96,.45-1.16,1.09-1.05,3.47-2.13,6.93-3.27,10.37-.14,.42-.61,.92-1.02,1.04-12.08,3.27-24.18,6.49-36.28,9.71-.17,.04-.34,.06-.7,.12,.24-.73,.42-1.33,.63-1.93,8.69-24.16,17.39-48.32,26.09-72.48,3.7-10.27,7.39-20.54,11.06-30.82,.31-.85,.72-1.33,1.66-1.58,11.15-2.91,22.29-5.88,33.43-8.82,2.94-.78,5.88-1.53,8.91-2.32,.59,1.28,1.16,2.53,1.72,3.77,10.49,23.42,20.98,46.85,31.47,70.27,.1,.23,.24,.44,.37,.66v12.64Zm-55.22-52.25c-.09,0-.17,0-.26,.01-3.48,11.65-6.96,23.3-10.49,35.15,7.2-1.93,14.15-3.79,21.19-5.67-3.51-9.91-6.97-19.7-10.43-29.49Z"/><path d="M115.11,155.02c-.37-32.09-.74-64.13-1.11-96.27,30.37-8.15,60.68-16.28,91.25-24.47,0,.99,0,1.77,0,2.55,.05,6.64,.09,13.28,.19,19.92,.01,.83-.44,.96-1,1.11-9,2.41-18.01,4.82-27.02,7.23-8.83,2.36-17.66,4.74-26.5,7.07-.84,.22-.95,.64-.95,1.37,.03,11.94,.07,23.88,.06,35.81,0,11.68-.06,23.37-.07,35.05,0,.64-.06,1.03-.83,1.24-11.07,3.05-22.13,6.13-33.2,9.21-.24,.07-.49,.1-.83,.17Z"/><path d="M160.14,108.03c-3.16-6.97-6.29-13.86-9.5-20.95,15.5-4.14,30.9-8.26,46.47-12.43,.09,1.79,.19,3.48,.27,5.16,.26,5.69,.5,11.38,.79,17.07,.04,.74-.12,1.08-.89,1.28-11.95,3.16-23.9,6.36-35.85,9.55-.41,.11-.83,.2-1.29,.32Z"/><path d="M182.31,148.19c0-2.82,.01-5.43,0-8.03,0-.63,.17-.99,.83-1.16,2.49-.63,4.96-1.3,7.52-1.98,.04,.43,.07,.81,.11,1.31,1.81-2.34,4.31-3.08,7.03-3.33,1.42-.13,2.57,.31,3.23,1.69,.06-.06,.13-.11,.13-.16q.1-2.38,2.41-2.98c1.54-.4,3.07-.85,4.62-1.21,3.53-.82,6.98-1.97,10.51-2.82,1.16-.28,2.31-.6,3.59-.94,0,1.69-.02,3.27,0,4.85,0,.64-.26,1.47,.75,1.66,.94,.18,2.13-.45,2.39-1.26,.11-.34,.15-.71,.15-1.06,.01-1.66,0-3.32,0-5.07,1.06-.29,2.1-.57,3.19-.86,.04,.63,.08,1.16,.13,1.97,.29-2.1,.31-2.04,2.2-2.64,1.2-.38,2.06-.41,2.76,.88,.49,.9,1.32,1.62,1.99,2.42,.12-.01,.24-.03,.36-.04,0-1.21,.05-2.42-.02-3.63-.04-.78,.24-1.11,.98-1.23,.67-.11,1.33-.33,2.07-.52v8.84c-.07,.07-.12,.14-.17,.15-3.64,1.08-3.72,1.04-6.1-2.31-.14-.2-.28-.41-.67-.6-.05,1.19-.2,2.39-.13,3.57,.06,1.01-.33,1.42-1.26,1.55-.56,.08-1.11,.27-1.8,.44v-5.3c-.09,0-.18,0-.27,0,0,.71,.02,1.42,0,2.12-.06,2.26-.93,3.5-3.08,4.2-1.27,.41-2.57,.73-3.88,1-1.7,.34-2.65-.38-2.83-2.1-.09-.9-.03-1.81-.04-2.72,0-.35,0-.7,0-1.04-.18-.02-.26-.05-.32-.03q-2.04,.45-2.06,2.53c0,1.52,0,3.05,0,4.67-1.07,.29-2.1,.57-3.29,.9v-6.51c-1.64,.04-1.89,.24-2.38,1.61-.16,.45-.47,.86-.73,1.33,1.22,1.03,.33,2.69,1.05,4.1-1.21,.33-2.34,.63-3.48,.94q-.44-2.6-2.4-2.23c-.23-.39-.47-.8-.71-1.21-.08,.01-.17,.03-.25,.04,0,1.18-.03,2.36,.01,3.54,.02,.58-.17,.85-.75,.96-.81,.16-1.6,.41-2.49,.65v-2.57c-.07-.02-.13-.04-.2-.06-.19,.47-.25,1.05-.58,1.38-.83,.82-1.69,1.71-2.71,2.24-1.1,.57-2.39,.82-3.62,1.09-2.21,.48-3.15-.07-4.1-2.33-.66,.17-1.36,.31-2.03,.53-.91,.29-1.83,.7-1.96-1.05-.09,.09-.18,.17-.27,.26-.05,1.16-.2,2.32-.14,3.46,.06,1.07-.39,1.48-1.36,1.62-.63,.09-1.25,.3-1.93,.47Zm11.2-7.59c.05,1.64,.44,2.21,1.49,2.17,1.68-.07,2.86-1.49,2.8-3.36-.04-1.28-.55-1.83-1.66-1.8-1.54,.04-2.68,1.33-2.62,2.98Zm-7.82,1.35c1.13-.29,2.19-.65,3.28-.83,1.07-.18,1.3-.76,1.17-1.73-.65,.16-1.24,.3-1.83,.46-.59,.16-1.18,.38-1.78,.47-.93,.15-1.22,.62-.84,1.62Zm18.7-4.6c1-.29,1.85-.46,2.64-.79,.28-.11,.49-.57,.58-.91,.04-.17-.3-.63-.41-.61-.88,.15-1.79,.28-2.58,.65-.25,.12-.15,.97-.23,1.65Z"/><path d="M260.48,126.76s.05,.19,.14,.51c-1.1,.29-2.17,.57-3.28,.87-.18-.33-.33-.6-.48-.89-.87,.22-1.73,.38-2.53,.68-.38,.14-.65,.55-.97,.84-.22,.2-.41,.51-.66,.6-.92,.3-1.86,.52-2.99,.82,.71-1.99,1.35-3.81,2-5.63,.41-1.16,.87-2.3,1.23-3.48,.2-.65,.58-.94,1.2-1.06,1.02-.2,2.22-.87,3-.53,.7,.31,.93,1.69,1.37,2.6,.38,.78,.75,1.56,1.24,2.57v-6.11c1.11-.3,2.12-.58,3.31-.9,0,1.64-.02,3.18,0,4.71,.01,.7-.35,1.63,.82,1.81,1.18,.18,2.32-.51,2.42-1.62,.13-1.36,.16-2.75,.07-4.12-.1-1.62-.18-1.62,1.32-2.02,3.22-.86,6.44-1.72,9.67-2.58,.31-.08,.63-.14,1.02-.23,.05,.34,.1,.61,.15,.93,.09-.05,.18-.09,.23-.15,1.89-2,4.35-2.7,6.97-2.83,2.09-.1,3.29,1.62,3.12,4.17-.18,2.56-1.6,4.42-4.06,5.21-1.17,.37-2.36,.68-3.56,.93-1.94,.41-3.37-.62-3.58-2.62-.11-1-.02-2.02-.02-3.15-.55,.13-1.19,.21-1.74,.47-.25,.12-.45,.6-.46,.93-.04,1.66-.02,3.33,.01,5,.01,.59-.12,.93-.79,1.04-.81,.13-1.59,.41-2.51,.65v-6.46c-.16-.05-.24-.1-.3-.09-2.05,.41-2.02,.41-2.11,2.51-.07,1.61,.11,3.34-1.3,4.54-.59,.5-1.31,.9-2.04,1.17-1.08,.39-2.21,.7-3.34,.89-.84,.14-1.72,.03-2.56,.03Zm20.59-9.5c.02,.21,.02,.58,.1,.92,.21,.92,.79,1.32,1.75,1.15,1.83-.33,3.11-2.76,2.21-4.38-.21-.39-.83-.75-1.28-.78-1.55-.11-2.87,1.35-2.77,3.08Zm-26.79,8.43c.77-.22,1.31-.38,1.95-.57-.33-.86-.62-1.61-1.01-2.65-.34,1.18-.61,2.09-.94,3.21Z"/><path d="M248.32,121.6q.1,2.19-1.71,2.69c-.94,.26-1.88,.52-2.83,.73-.72,.16-1.11,.48-.82,1.44,1.63-.42,3.28-.84,4.93-1.27q.29,1.97-1.45,2.44c-.24,.07-.49,.14-.73,.2-1.07,.27-2.29,1-2.83-.83v2.78c1.8-.47,3.57-.94,5.42-1.42,.03,.26,.04,.43,.07,.6,.19,1.27-.39,1.8-1.63,2.07-2.36,.51-4.67,1.21-7.13,1.87v-8.97c2.81-.75,5.72-1.53,8.72-2.33Z"/></svg>