<?xml version="1.0" encoding="UTF-8"?><svg id="uuid-93b752d0-62a3-45a7-a3e5-f382e1a57fa1" xmlns="http://www.w3.org/2000/svg" viewBox="0 0 418 172"><path d="M92.43,51.29c10.84-5.63,20.43-12.24,30.96-15.75,26.6-8.86,56.67,7.9,63.18,37.81,6.67,30.61-11.05,58.77-39.93,64.17-19.26,3.6-34.69-3.07-47.86-17.07-9,5.02-17.52,10.63-26.66,14.72-25.54,11.43-60.73-4.79-67.81-36.58-5.81-26.08,7.5-47.99,25.52-58.77,19.06-11.4,44.26-7.17,60.61,9.47,.84,.86,1.7,1.69,1.99,1.99Zm66.15,8.51c-12.29-8.98-24.41-10.4-36.36-3.4-17,9.95-33.44,20.94-50.1,31.52-12.59,8-25.16,16.05-37.87,24.16,9.21,8.79,23.25,10.69,35.02,3.52,29.61-18.05,58.87-36.72,89.31-55.8Zm-81.5,2.63c-11.02-9.14-21.92-13.07-34.63-7.43-12.54,5.56-19.41,15.58-21.09,29.66-1.03,8.69,5.42,24.02,11.48,25.75-.27-4.3-.33-8.61-.86-12.86-.49-3.99,.72-6.38,4.13-8.53,13.48-8.48,26.76-17.32,40.97-26.59Zm37.53,47.34c16.87,14.91,37.61,12.75,49.85-4.59,9.31-13.18,6.84-35.15-5.44-43.54,.33,4.49,.54,8.54,.95,12.57,.44,4.28-.65,7.06-4.62,9.48-13.62,8.28-26.92,17.17-40.74,26.08Z"/><path d="M248.45,41.09c9.84,.28,20.47-3.99,25.87,9.23,.28-2.92,.57-5.85,.88-9.05h19.55v87.75h-19.6c-1.5-15.97,2.31-32.95-6.61-49.31v49.38h-20.09V41.09Z"/><path d="M300.7,41.17h19.43v25.39c5.88-7.39,7.12-16.03,7.12-25.27h19.96c-.02,10.32-2.04,20.15-5.17,29.9-.97,3.03-1.29,6.9-.4,9.89,4.61,15.56,6.33,31.39,5.64,48.05h-19.88c-.92-12.11,1.24-24.43-3.48-35.8-.6-.09-1.21-.19-1.81-.28-.56,2.3-1.57,4.58-1.61,6.89-.18,9.68-.08,19.37-.08,29.34h-19.72V41.17Z"/><path d="M223.8,59.05v13.94h19.18c0,5.46,.25,10.36-.18,15.2-.11,1.21-2.34,3.04-3.7,3.14-4.89,.38-9.82,.15-15.16,.15v19.8h20.47v17.84h-40.91V41.32h39.03v17.73h-18.74Z"/><path d="M391.83,111.36v17.91h-40.2V41.4h38.67v17.65h-18.41v13.94h17.92v18.24h-17.91v20.13h19.94Z"/><path d="M395.68,41.15h19.39v87.93h-19.39V41.15Z"/></svg>