<?xml version="1.0" encoding="UTF-8"?><svg id="uuid-0735956e-fb0e-400d-a55d-32d5e8c35226" xmlns="http://www.w3.org/2000/svg" viewBox="0 0 418 172"><path d="M8.6,119.47c-.82-1.79,.07-2.43,1.09-3.09,8.3-5.45,16.59-10.91,24.87-16.41,8.75-5.81,17.48-11.64,26.17-17.53,.49-.33,.84-1.36,.74-1.97-.55-3.36-1.33-6.68-1.87-10.04-.08-.53,.56-1.51,1.1-1.75,6.54-2.94,13.13-5.76,19.69-8.66,11.03-4.87,22.04-9.79,33.07-14.66,4.4-1.94,8.83-3.83,13.7-5.94-2.16,5.34-4.19,10.35-6.51,16.08,8.51-2.82,16.44-5.45,24.61-8.16v5.36c3.39-2.24,6.42-4.25,9.57-6.34,3.02,2.9,6.04,5.67,8.9,8.61,1.1,1.13,1.75,1.01,2.77,.01,4.25-4.18,8.53-8.32,12.83-12.44,1.41-1.35,2.94-2.59,4.59-4.04,1.52,5.14,2.95,10,4.45,15.09,7.63-2.42,15.19-4.81,22.96-7.27,.44,1.85,.85,3.58,1.34,5.6,5.33-6.33,10.52-12.51,15.72-18.69,.18,.01,.36,.03,.55,.04v17.63l.86,.23c1.09-1.88,2.18-3.76,3.37-5.81,3.36,.75,6.73,1.5,10.1,2.26,6.75,1.52,13.48,3.17,20.28,4.45,1.08,.2,2.81-.99,3.64-2.02,1.79-2.22,4.01-2.53,6.6-2.62,3.59-.13,7.17-.62,10.76-.93,3.74-.33,7.47-.65,11.21-.94,6.2-.49,12.41-.96,18.62-1.43,.19-.01,.38,.08,.82,.19-1.57,1.8-3.03,3.48-4.48,5.15,.06,.17,.13,.34,.19,.51,15.37-4.61,30.73-9.21,46.55-13.96-3.25,4.97-6.17,9.44-9.09,13.9,.09,.22,.17,.43,.26,.65,20.3-4.8,40.42-10.37,61.12-15.24-1.68,1.78-3.08,3.28-4.5,4.77-8.33,8.72-16.68,17.43-25.01,26.15-1.86,1.95-3.91,3.76-5.47,5.92-.97,1.35-1.33,3.21-1.72,4.89-1.01,4.35-1.93,8.72-2.8,13.09-.36,1.81-1.27,2.9-2.96,3.74-9.58,4.79-19.1,9.71-28.65,14.59-8.08,4.13-16.15,8.25-24.22,12.39-11.3,5.79-22.6,11.6-33.9,17.4-.3,.15-.63,.24-1.49,.57,5.49-8.27,10.7-16.12,15.9-23.96-.12-.19-.24-.38-.36-.58-1.62,.49-3.25,.95-4.86,1.47-.47,.15-.88,.46-1.34,.64q-5.72,2.16-11.41-3.07c-1.35-1.24-2.77-2.41-4.16-3.62-4.25,2.39-8.46,4.71-12.61,7.14-1.06,.62-1.8,.75-2.83-.06-2.05-1.62-4.27-3.01-6.31-4.65-.89-.72-1.27-.56-2.1,.12-3.88,3.18-7.8,6.34-11.86,9.28-1.24,.9-2.95,1.27-4.51,1.59-9.88,2.03-19.78,3.98-29.67,5.95-6.51,1.3-13.03,2.58-20.07,3.97,6.5-6.85,12.64-13.31,18.91-19.92-3.21-1.47-5.87-2.01-8.25,.6-2.19,2.4-4.5,2.58-7.26,.72-2.03-1.37-4.4-2.25-6.6-3.38-1.24-.64-2.32-.72-3.52,.25-1.21,.97-2.55,1.88-3.97,2.47-1.04,.43-2.32,.51-3.46,.4-4.77-.48-9.52-1.22-14.3-1.6-1.84-.15-3.76,.28-5.6,.65-3.26,.65-6.49,1.5-9.75,2.17-.54,.11-1.26-.09-1.76-.38-1.65-.98-3.47-1.84-4.78-3.17-1.83-1.86-3.7-1.58-5.77-.94-7.25,2.22-14.49,4.43-21.73,6.66-1.27,.39-2.26,.5-3.31-.77-1.66-2.02-3.56-3.88-5.51-5.63-.7-.63-1.88-1.16-2.78-1.07-7.65,.75-15.29,1.63-22.92,2.51-6.17,.71-12.33,1.49-18.5,2.17-4.15,.46-8.31,.78-12.46,1.22-4.77,.52-9.53,1.14-14.3,1.67-4.22,.47-8.44,.87-12.66,1.31-1.31,.14-2.62,.34-3.95,.52ZM119.05,47.73c-1.11,0-1.79-.17-2.34,.03-2.28,.82-4.55,1.67-6.76,2.67-5.49,2.47-10.94,5.02-16.39,7.56-1.76,.82-3.45,1.81-5.24,2.56-7.22,3.02-14.46,5.96-21.68,8.97-1.43,.6-1.96,1.55-1.29,3.2,.94,2.33,1.43,4.84,2.43,7.14,.86,1.98,.93,3.01-1.29,4.28-6.99,4-13.75,8.4-20.65,12.56-8.12,4.89-16.3,9.68-24.43,14.57-.86,.52-1.53,1.35-2.29,2.04,1.22,.15,2.47,.55,3.66,.41,3.62-.44,7.21-1.18,10.83-1.63,5.61-.69,11.24-1.19,16.85-1.84,8.09-.94,16.16-1.94,24.24-2.92,5.46-.67,10.92-1.44,16.4-1.97,1.81-.17,3.67-.89,5.54,.41,3.17,2.21,6.5,4.2,9.8,6.21,.48,.29,1.24,.43,1.78,.29,5.76-1.52,11.53-3.04,17.25-4.74,2.39-.71,4.46-.53,6.65,.64,3.59,1.92,7.38,3.04,11.5,1.75,.67-.21,1.35-.43,2.04-.55,6.29-1.08,12.45,.25,18.67,.86,2.27,.22,4.65,.07,6.87-.41,1.58-.34,2.99-1.53,4.47-2.33,1.7-.92,3.3-1.17,4.97,.25,1.28,1.09,2.76,1.96,4.2,2.85,1.28,.79,2.45,1.32,4.08,.3,4.74-2.98,10.11-3.78,15.61-3.95,1.6-.05,3.19-.14,5.2-.23-3.72,5.86-7.24,11.4-11.14,17.55,1.52,.28,2.62,.78,3.6,.6,2.24-.42,4.39-1.3,6.63-1.76,5.76-1.2,11.57-2.2,17.33-3.44,2.39-.51,4.98-.98,6.97-2.25,4.47-2.86,8.57-6.31,12.94-9.33,3.83-2.64,3.32-2.73,6.76,.1,.55,.45,1.19,.79,1.66,1.31,1.46,1.6,2.91,1.42,4.75,.52,4.55-2.21,9.2-4.2,13.12-5.97,2.51,2.25,4.88,4.06,6.84,6.23,1.38,1.53,2.84,1.75,4.55,1.37,3.76-.84,7.49-1.8,11.24-2.69,3.04-.72,6.09-1.42,9.49-2.21-.57,.89-.93,1.48-1.3,2.06-2.96,4.59-5.95,9.16-8.85,13.78-.47,.74-.54,1.73-.8,2.6,.91-.21,1.91-.23,2.71-.65,3.41-1.75,6.73-3.68,10.13-5.44,8.58-4.44,17.2-8.82,25.79-13.24,5.23-2.68,10.44-5.41,15.68-8.06,5.02-2.55,10.09-5,15.09-7.58,.73-.38,1.57-1.13,1.76-1.86,1.26-4.9,2.31-9.85,3.52-14.77,.31-1.26,.7-2.66,1.51-3.6,3.91-4.52,7.96-8.92,12.01-13.32,2.64-2.87,5.4-5.63,8.02-8.52,.52-.58,.66-1.5,.97-2.27-.15-.21-.31-.42-.46-.63-16.1,3.36-32.2,6.72-48.65,10.16,1.55-3.53,2.95-6.72,4.35-9.91-.23-.22-.46-.45-.68-.67-15.01,3.14-29.82,7.12-44.69,10.88,.4-1.15,.8-2.28,1.46-4.15-8.67,0-16.62-.02-24.56,.03-.8,0-1.61,.41-2.38,.72-4.75,1.89-9.24,4.6-14.8,3.21-3.12-.78-6.42-.85-9.64-1.24-4.65-.57-9.29-1.13-14.03-1.71-1.09,2.24-1.94,4.28-3.04,6.18-1.41,2.46-3.14,4.62-6.72,4.17-.28-1.79-.56-3.65-.86-5.51-.44-2.78-.86-5.57-1.39-8.33-.1-.51-.66-1.17-1.12-1.28-.4-.1-1.04,.4-1.44,.78-.85,.81-1.63,1.7-2.39,2.59-2.58,2.99-5.15,6-7.84,9.14-.88-2.46-1.81-4.64-2.41-6.9-.36-1.35-1.1-1.58-2.16-1.36-2.86,.59-5.79,1.05-8.54,1.99-3.85,1.31-7.57,3-11.53,4.61-1.25-3.21-2.61-6.63-3.92-10.07-.79-2.07-1.77-2.26-3.26-.68-4.42,4.68-8.86,9.33-13.46,14.16-2.49-1.64-4.82-3.16-7.13-4.72-1.71-1.16-3.36-2.4-5.1-3.51-.31-.19-.98,0-1.39,.2-2.97,1.5-5.92,3.05-9.02,4.66-.29-.33-.65-.78-1.05-1.18-1.76-1.81-3.59-2.68-6.22-1.44-1.79,.85-3.9,1.03-5.87,1.52-4.8,1.18-9.59,2.36-14.65,3.6,.95-4.33,1.91-8.68,2.95-13.4Z"/><path d="M321.2,90.44c-.56,.97-.9,1.56-1.2,2.07,4.99-.38,9.91-.75,14.83-1.12,.03-.08,.06-.16,.09-.25-1.35-.25-2.7-.5-4.74-.87,7.22-3.49,13.88-6.71,20.54-9.92-.04-.25-.08-.51-.12-.76-1.79-.74-3.56-1.5-5.36-2.2-3.78-1.48-5.35-5.05-7.09-8.17-1.6-2.87,.47-5.32,4.09-5.68,1.01-.1,2.01-.26,3.01-.39,0-.24-.02-.47-.02-.71-.55-.14-1.1-.29-1.65-.43-.07-.17-.14-.34-.21-.52,2.24-1.04,4.51-2.03,6.73-3.12,3.15-1.53,6.48-1.32,9.79-.98,.74,.08,1.53,.71,2.07,1.29,.63,.68,1.07,1.57,1.51,2.41,.62,1.18-.11,2.32-1.51,2.44-1.91,.17-3.84,.24-5.71,.61-1.04,.21-2,.9-2.96,1.44-1.9,1.07-3.79,2.18-5.67,3.3-.46,.27-.88,.63-1.83,1.31,2.5,.84,4.52,1.55,6.55,2.21,4.56,1.48,7.2,4.83,7.46,9.57,.11,1.92-1.13,3-2.62,3.79-1.98,1.05-4.06,1.91-6.05,2.96-1.9,1-3.68,2.26-5.63,3.16-.8,.36-1.9,.06-2.72,.06-.47,2.38-2.14,3.78-3.86,4.82-3.59,2.15-7.48,3.67-11.74,3.81-.6,.02-1.35-.36-1.79-.79-.98-.95-1.74-1.04-2.96-.26-3.18,2.04-8.8,1.58-11.37-.99-.67-.67-.91-2.15-.76-3.16,.21-1.39,.88-2.75,1.55-4.01,.56-1.04,1.25-1.83,2.85-1.46,1.97,.45,4.07,.36,6.48,.53Z"/><path d="M60.98,96.98c10.22-4.55,20.44-8.63,30-14.04-.03-.21-.06-.43-.08-.64-1.34-.51-2.66-1.12-4.03-1.51-3.51-1.01-5.48-3.68-7.17-6.59-2.38-4.11-2.86-3.4,1.79-5.93,1.24-.68,2.4-1.55,3.69-2.11,1.13-.49,2.41-.98,3.6-.94,3.16,.08,6.31,.45,9.44,.7-4.07,2.24-7.98,4.39-11.89,6.55,.03,.23,.05,.45,.08,.68,2.31,.74,4.63,1.45,6.93,2.23,3.61,1.22,6.53,5.22,6.64,9.05,.06,2.2-1.29,3.9-3.4,4.52-1.11,.32-2.21,.81-3.22,1.38-3.31,1.86-6.74,3.58-9.83,5.76-3.61,2.53-7.81,1.88-11.71,2.82-1.7,.41-3.49,.42-5.2,.79-3.26,.7-3.25,.75-5.64-2.71Z"/><path d="M239.13,81.68c-1.33,2.46-2.48,4.6-3.64,6.74,.12,.14,.23,.28,.35,.43,1.11-.61,2.26-1.16,3.32-1.83,1.73-1.09,3.44-2.23,5.11-3.42,1.45-1.03,2.94-1.23,4.71-.98,3.55,.5,7.14,.72,11.33,1.11-1.13,.84-1.74,1.34-2.39,1.77-7.68,5.01-15.36,10.04-23.09,14.97-1.09,.69-2.47,.93-3.73,1.36-.19,.07-.53,.15-.61,.06-1.42-1.56-3.33-1.55-5.22-1.89-1.29-.23-2.41-1.32-3.65-1.91-1.88-.9-2.1-1.97-.89-3.69,2.78-3.96,5.6-7.9,8.15-12.01,1.05-1.7,2.4-1.8,3.94-1.65,1.96,.2,3.91,.58,6.31,.95Z"/><path d="M281.46,91.44c.22-.32,.41-.69,.68-.98,1.91-2.01,3.23-4.41,7.05-3.57,5.14,1.12,10.5,1.21,15.76,1.8,.47,.05,1.22,.48,1.27,.81,.07,.5-.3,1.12-.61,1.61-2.23,3.53-5.84,4.82-9.59,6-2.95,.93-5.79,2.2-8.68,3.32-3.99,1.55-6.76,.86-8.77-2.82-1.84-3.36-3.69-6.72-5.51-10.09-1.26-2.33-3.25-2.44-4.78-.27-1.64,2.31-3.32,4.59-4.94,6.93-.91,1.32-1.93,1.77-3.39,.83-.65-.42-1.45-.61-2.05-1.07-2.46-1.92-2.5-2.47-.65-5.02,.91-1.26,1.69-2.64,2.7-3.82,.47-.54,1.38-1.06,2.05-1.02,3.11,.2,6.21,.59,9.31,.93,.28,.03,.56,.24,.82,.21,4.72-.61,7.28,1.95,8.87,5.97,.04,.1,.24,.13,.47,.26Z"/><path d="M132.89,70.32c-2.5,2-5.07,3.92-7.47,6.03-5.18,4.54-9.92,9.47-12.83,15.86-.53,1.15-1.24,1.59-2.59,1.65-2.64,.14-5.27,.62-8.05,.98-.8-4.34,.92-7.7,2.93-10.86,3.77-5.93,8.68-10.78,14.67-14.5,.53-.33,1.2-.64,1.79-.61,3.79,.19,7.57,.47,11.36,.73,.07,.24,.14,.48,.2,.72Z"/><path d="M231.71,77.27c.48-2.01,.63-3.69,1.28-5.17,1.61-3.7,3.48-7.29,5.17-10.95,1.44-3.1,2.57-3.33,5.91-2.26,3.63,1.16,7.44,1.74,11.16,2.64,4.91,1.2,8.4,4.33,10.96,8.52,1.3,2.14,.92,2.61-1.51,2.85-2.86,.29-5.7,.72-9.04,1.16,.48-1.12,.77-1.93,1.16-2.69,.97-1.9,.6-2.8-1.44-3.17-2.51-.45-5.02-.87-7.54-1.25-1.5-.23-2.55,.11-2.99,1.88-.44,1.77-1.2,3.49-2.03,5.13-.41,.83-1.18,1.89-1.95,2.05-2.81,.57-5.68,.81-9.15,1.26Z"/><path d="M210.81,74.61c.81-1.84,1.6-3.69,2.44-5.52,.71-1.54,1.43-3.08,2.2-4.59,.76-1.47,1.82-2.65,3.66-2.04,1.65,.54,3.14,3.36,2.51,4.9-1.21,2.95-2.57,5.83-4.01,8.68-.22,.43-1.22,.75-1.81,.68-5.83-.68-11.64-1.44-17.46-2.19-.4-.05-.78-.25-1.26-.41,1.14-3.8,2.26-7.51,3.37-11.21,.18-.61,.47-1.2,.56-1.82,.16-1.12,.44-2.28,1.75-2.23,1.19,.05,2.45,.43,3.51,.99,.68,.36,1.32,1.24,1.5,2,.88,3.67,3,7.09,2.32,11.09-.09,.51,.07,1.07,.12,1.6,.19,.03,.38,.06,.57,.08Z"/><path d="M248.17,80.45c1.93-1.63,3.25-3.17,5.83-3.52,10.38-1.4,20.72-3.16,31.07-4.79,1.33-.21,2.65-.47,3.98-.64,.35-.04,.93,.07,1.06,.31,.15,.27-.03,.77-.15,1.14-.06,.17-.29,.31-.48,.41-4.6,2.66-8.08,6.77-12.56,9.58-.61,.38-1.42,.71-2.1,.65-4.72-.42-9.45-.89-14.16-1.44-4.06-.48-8.1-1.09-12.5-1.69Z"/><path d="M305.14,69.31c-.42,1.58-.65,2.44-.91,3.43,2.17-.36,4.25-.64,6.29-1.05,1.6-.32,3.02-.35,3.7,1.46,.53,1.42-.49,3.13-2.29,3.8-2.85,1.06-5.67,2.34-8.62,2.96-2.6,.55-3.61,2.47-4.62,4.29-1.17,2.11-2.53,2.39-4.68,1.92-2.26-.49-4.61-.55-7.28-.83,1.44-2.28,2.77-4.23,3.94-6.28,1.22-2.16,2.26-4.42,3.43-6.6,.32-.6,.77-1.47,1.28-1.57,3.09-.59,6.22-1,9.76-1.53Z"/><path d="M285.87,65.12c-2.12-.43-3.46-.56-4.13,1.07-1.7,4.1-5.11,5.4-9.17,5.69-1.18,.08-2.36,.19-4.3,.35,1.06-1.57,1.75-2.79,2.63-3.86,1.71-2.1,3.26-4.12,3.42-7.09,.06-.99,1.85-2.47,3.05-2.71,4.28-.86,8.61-1.04,12.55,1.53,1.79,1.17,4.09,5.94,3.61,7.74-.13,.47-.52,1.18-.87,1.23-3.67,.52-7.36,.93-11.64,1.43,1.78-1.97,3.15-3.48,4.86-5.38Z"/><path d="M296.04,68.56c1.27-2.88,2.29-5.28,3.39-7.64,.72-1.54,1.88-1.29,2.63-.18,1.28,1.89,2.64,1.59,4.54,1,4.92-1.54,9.94-2.8,14.94-4.08,3.32-.85,6.2,.26,8.59,2.53,.58,.55,.9,1.8,.74,2.6-.12,.57-1.2,1.18-1.94,1.34-1.86,.38-3.78,.52-5.67,.75-.28,.03-.72,.18-.83,.05-2.21-2.52-4.16-.08-6.21,.29-4.71,.84-9.4,1.73-14.12,2.54-1.9,.33-3.82,.51-6.06,.8Z"/><path d="M330.5,65.64c-1.35,3.98-2.47,7.63-3.84,11.18-1.31,3.38-1.74,7.21-4.61,9.87-.05,.05-.12,.12-.11,.17,.71,3.67-1.84,2.05-3.35,2.03-.84,0-1.67-.22-2.51-.26-3.22-.13-3.26-.34-2.08-3.26,2.06-5.1,3.98-10.25,5.85-15.43,.68-1.89,.86-3.79,3.8-3.39,1.64,.22,3.41-.65,5.14-.98,.39-.07,.8,.02,1.73,.07Z"/><path d="M168.43,89.81c-.45,1.6-.74,2.65-1.04,3.7,.16,.13,.32,.25,.48,.38,1.17-1.12,2.26-2.33,3.52-3.32,.89-.69,1.96-1.35,3.03-1.56,2.6-.51,5.26-.74,8.5-1.16-1.78,2.49-3.1,4.61-4.7,6.51-1.87,2.21-3.96,4.23-5.98,6.3-1.84,1.89-4.26,2.07-6.54,1.58-1.8-.38-3.6-1.33-5.11-2.43-2.52-1.84-2.97-5-1.42-7.71,.16-.29,.47-.62,.76-.68,2.71-.55,5.44-1.03,8.5-1.6Z"/><path d="M214.26,83.14c-1.55,4.89-2.99,9.46-4.44,14.02-.09,.27-.23,.52-.3,.79-.34,1.23,.41,3.07-1.83,3.2-2.28,.13-5.14-1.15-5.44-2.91-.47-2.8-.47-5.68-.65-8.53-.02-.28,.09-.56,.07-.84-.3-3.93-.04-3.95,4.22-4.63,2.7-.43,5.43-.72,8.37-1.1Z"/><path d="M149.35,71.54c-2.33,3.48-4.55,6.58-6.54,9.82-1.36,2.23-2.38,4.67-3.61,6.98-.31,.58-.77,1.38-1.29,1.5-2.18,.49-4.41,.77-7.04,1.19,.98-2.7,.78-5.35,3.29-6.81,.31-.18,.4-.73,.6-1.1,1.79-3.22,3.63-6.42,5.37-9.66,1.01-1.88,2.48-2.57,4.56-2.29,1.46,.2,2.93,.24,4.66,.37Z"/><path d="M163.9,73.24c-.48,4.36-2.23,7.77-4.06,11.24-1.34,2.55-3.34,3.09-5.8,3.35-2.23,.24-4.44,.65-7.13,1.05,1.32-2.07,2.44-3.67,3.41-5.36,1.87-3.25,3.63-6.55,5.48-9.8,.25-.43,.74-1.05,1.1-1.04,2.3,.1,4.59,.35,7,.56Z"/><path d="M154.63,92.7c-2.96,2.9-5.75,5.99-8.92,8.64-2.76,2.3-7.22,1.8-10.36-.37-1.9-1.31-4.27-2.07-4.35-5.34,1.86-.31,3.82-.64,5.78-.96-.03,.25-.07,.51-.1,.76,.74,.19,1.81,.8,2.17,.51,3.99-3.24,8.96-2.68,13.52-3.67,.61-.13,1.25-.11,1.88-.17,.13,.2,.26,.4,.4,.6Z"/><path d="M199.91,85.27c-1.85,3.94-3.54,7.41-5.09,10.95-.58,1.32-.94,2.76-1.25,4.19-.3,1.42-2.19,2.32-3.62,1.61-1.32-.66-2.65-1.33-4.47-2.24,1.02-2.61,2.06-5.32,3.15-8.02,.29-.72,.88-1.36,1.02-2.09,.57-3.07,2.81-3.75,5.42-3.97,1.52-.13,3.03-.27,4.84-.43Z"/><path d="M163.6,70.37c-2.24-.29-4.3-.57-6.31-.83-.2-.78-.24-1.45-.53-1.97-.61-1.1-1.71-1.68-2.56-.54-1.53,2.05-3.47,1.86-5.56,1.57-1.67-.24-3.35-.4-5.51-.66,.76-1.08,1.19-1.85,1.76-2.49,1.37-1.54,2.8-3.02,4.2-4.52,1.8-1.94,3.45-2,5.59-.33,.64,.5,1.44,.89,2.23,1.05,3.16,.65,6.74,5.03,6.69,8.73Z"/><path d="M176.13,74.58c-1.05,1.88-1.96,3.51-2.88,5.14-.28,.5-.55,.99-.83,1.48-.82,1.45-1.34,3.74-2.53,4.17-2.64,.96-5.62,.98-8.95,1.46,2.08-4.43,3.87-8.36,5.79-12.22,.23-.47,1.14-.91,1.7-.88,2.46,.17,4.9,.52,7.7,.84Z"/><path d="M169.08,70.43c2.07-3.27,4.07-6.58,6.25-9.78,.81-1.2,2.09-2.71,3.66-1.6,1.59,1.12,2.77,2.86,4.05,4.39,.13,.15-.21,.78-.43,1.12-1.31,2.01-2.7,3.97-3.95,6.02-.68,1.12-1.44,1.54-2.78,1.32-2.12-.34-4.28-.46-6.42-.67-.12-.26-.25-.53-.37-.79Z"/><path d="M184.31,72.77c2.31-4.07,4.28-7.99,7.97-10.69,.56-.41,.88-1.25,1.47-1.48,.92-.35,2.14-.72,2.92-.37,.55,.24,1.07,1.92,.76,2.51-1.87,3.56-3.97,7.01-6.04,10.46-.18,.3-.73,.58-1.07,.54-1.92-.25-3.83-.6-6.01-.96Z"/><path d="M106.59,99.09c7.33-1.03,14.6-2.04,21.86-3.06,.07,.15,.14,.3,.21,.44-1.15,.68-2.27,1.42-3.45,2.02-3.06,1.54-5.72,3.82-9.26,4.49-3.8,.71-7.16-.47-9.36-3.89Z"/><path d="M176.12,84.74c2.25-3.12,4.24-6,6.39-8.76,.36-.46,1.44-.5,2.18-.48,1.41,.04,2.82,.29,4.23,.39,1.54,.11,1.57,.9,.96,2-.06,.12-.27,.17-.31,.28-1.74,5.64-6.42,6.05-11.19,6.3-.62,.03-1.24,.14-2.27,.26Z"/><path d="M192.84,82.69c.98-2.07,1.71-3.71,2.56-5.29,.18-.34,.82-.66,1.21-.62,6.41,.7,12.81,1.46,19.23,2.68-7.47,1.05-14.95,2.1-23,3.23Z"/><path d="M125.56,65.72c2.53-1.84,4.53-3.28,6.52-4.75,1.12-.83,2.21-.99,3.23,.09,1.11,1.17,2.32,2.29,3.21,3.62,.86,1.3-.01,2.77-1.5,2.6-3.64-.41-7.25-.98-11.46-1.56Z"/><path d="M116.19,92.44c2.8-.99,5.56-2.07,8.4-2.92,1.56-.47,2.98,.15,4.67,1.69-4.68,.6-8.8,1.14-12.92,1.67-.05-.15-.1-.29-.14-.44Z"/><path d="M103.36,63.06c-3.22-.3-6.35-.6-9.55-.9,2.67-2.29,7.8-2.15,9.38,.2,.1,.15,.1,.38,.18,.7Z"/><path d="M304.65,87.38c-1.54-.21-3.08-.42-4.62-.63,.01-.17,.02-.34,.03-.5,1.55,.12,3.1,.24,4.65,.36l-.07,.78Z"/></svg>