<?xml version="1.0" encoding="UTF-8"?><svg id="uuid-9563f0e3-2107-40ea-a4de-b05135c168d4" xmlns="http://www.w3.org/2000/svg" xmlns:xlink="http://www.w3.org/1999/xlink" viewBox="0 0 418 172"><defs><style>.uuid-53854030-4133-4f0c-8acf-42607d9bab78{clip-path:url(#uuid-ea66128d-1a03-4c9b-9948-be80e5bc36dc);}.uuid-340dd841-b1a5-43d1-a261-e7d93b2383e8{clip-path:url(#uuid-f56f186b-e506-4aa8-be72-4379f9dfbbdf);}.uuid-131f06bb-c97f-447b-8785-8a3e29d0b713{clip-path:url(#uuid-227d5eac-b5e8-4202-817a-492dfe002fcf);}.uuid-602f7bae-0180-4684-87cd-bec576b98a94{clip-path:url(#uuid-689dc195-42fc-40c2-8004-1510b5020583);}.uuid-5783da54-853b-47ac-b141-0898acd599fe{clip-path:url(#uuid-bf4c4256-dfda-4c90-b90a-5dae20da218d);}.uuid-2286591f-af46-4090-ba80-b99c2cca3d3d{clip-path:url(#uuid-497ad3dc-7320-4d8b-a0c9-52a06498c971);}.uuid-936ebde2-8523-40a3-a1ec-3d77e7561e52{clip-path:url(#uuid-5b0f52d1-5129-475d-916b-c796415af5d6);}.uuid-695aa4c7-b7f9-4c5d-b0a5-b6b516b6e99e{clip-path:url(#uuid-9b3c5a1e-b8fc-45cf-aca9-afd224ae6d32);}.uuid-1142ed6d-d1de-4339-8be2-5538efdc4977{fill:none;}.uuid-3fc212be-5ace-4522-a670-2f001fdc7f10{clip-path:url(#uuid-0be0ccfa-1fb6-49d1-b0b1-e0b3aad8f4f3);}</style><clipPath id="uuid-9b3c5a1e-b8fc-45cf-aca9-afd224ae6d32"><rect class="uuid-1142ed6d-d1de-4339-8be2-5538efdc4977" x="313.61" y="41.89" width="94.62" height="54.08"/></clipPath><clipPath id="uuid-bf4c4256-dfda-4c90-b90a-5dae20da218d"><rect class="uuid-1142ed6d-d1de-4339-8be2-5538efdc4977" x="9.77" y="100.64" width="398.46" height="4.18"/></clipPath><clipPath id="uuid-497ad3dc-7320-4d8b-a0c9-52a06498c971"><rect class="uuid-1142ed6d-d1de-4339-8be2-5538efdc4977" x="30.67" y="108.26" width="16.22" height="21.85"/></clipPath><clipPath id="uuid-5b0f52d1-5129-475d-916b-c796415af5d6"><rect class="uuid-1142ed6d-d1de-4339-8be2-5538efdc4977" x="151.12" y="108.26" width="15" height="21.85"/></clipPath><clipPath id="uuid-689dc195-42fc-40c2-8004-1510b5020583"><rect class="uuid-1142ed6d-d1de-4339-8be2-5538efdc4977" x="193.89" y="108.26" width="15.73" height="21.85"/></clipPath><clipPath id="uuid-ea66128d-1a03-4c9b-9948-be80e5bc36dc"><rect class="uuid-1142ed6d-d1de-4339-8be2-5538efdc4977" x="216.51" y="108.26" width="14.26" height="21.85"/></clipPath><clipPath id="uuid-f56f186b-e506-4aa8-be72-4379f9dfbbdf"><rect class="uuid-1142ed6d-d1de-4339-8be2-5538efdc4977" x="232.98" y="108.51" width="14.75" height="21.6"/></clipPath><clipPath id="uuid-0be0ccfa-1fb6-49d1-b0b1-e0b3aad8f4f3"><rect class="uuid-1142ed6d-d1de-4339-8be2-5538efdc4977" x="266.16" y="108.51" width="15" height="21.6"/></clipPath><clipPath id="uuid-227d5eac-b5e8-4202-817a-492dfe002fcf"><rect class="uuid-1142ed6d-d1de-4339-8be2-5538efdc4977" x="324.42" y="108.51" width="12.54" height="21.6"/></clipPath></defs><g id="uuid-783ec417-ed9d-4d7a-8f96-a22d42eea2d9"><path d="M42.07,95.94l50.09-54h-21.06l-31.87,33.71-7.29-33.71H10.33l14.27,54"/><path d="M156.76,90.37c2.17,2.66,5.05,3.94,8.66,4.47,3.6,.53,7.58,.79,11.94,.79h22.12l4.2-12.47-18.83-.13c-7.62,0-11.65-.71-12.09-3.36-.44-2.66,.34-6.49,2.36-11.51l9.64-26.21h-20.1l-9.39,32.19c-1.15,2.96-1.51,5.6-1.37,8.65,.13,2.83,.98,5.34,2.86,7.6"/><path d="M205.7,95.94h21.2l14.73-40.78h22.67l4.67-13.14h-67l-4.67,13.14h21.93"/><path d="M258.69,66.83c-2.14,4.81-1.93,12.01-1.11,15.46,2.64,11.21,13.95,12.27,17.36,12.82,3.4,.55,7.05,.83,10.96,.83h25.11l4.85-12.63-25.66,.19h-4.28c-2.11,0-5.89-.72-6.84-2.08-1.1-1.45-1.49-4.35-.75-6.26h40.23l4.58-12.2-40.16,.08c4.81-7.47,13.72-7.92,19.05-7.97h23.81l5.52-13.13-24.13,.07c-10.43,0-23.43,2.11-30.36,5.83-8.24,4.43-14.39,10.5-18.17,18.99"/><g class="uuid-695aa4c7-b7f9-4c5d-b0a5-b6b516b6e99e"><path d="M313.67,95.94h24.87l19.86-16.31,8.75,16.31h23.6l-16.45-27.75,33.93-26.25h-23.86l-18.26,14.58-8.82-14.58h-22.81l15.55,26.38"/></g><path d="M96.9,73.58c1.4-5.91,2.44-8.41,3.81-10.96,2.2-4.09,8.55-9.1,15.87-9.64,10.24-.76,11.43,.54,12.83,2.18s3.5,3.19,1.24,10.19c-2.26,7-4.35,10.03-5.05,10.89s-3.44,4.35-9.42,5.29-13.44,.86-15.08,.39-5.6-2.41-4.2-8.32m-19.68,11.9c5.6,7.46,14.78,9.33,29.55,9.49,19.91,.21,27.84-6.22,32.66-8.86,4.82-2.64,17.24-21.23,13.69-32.35-3.56-11.12-21.15-11.67-23.18-11.82-2.02-.15-10.42,.15-15.09,.15s-22.01,4.14-30.49,11.67c-8.4,7.47-12.75,24.26-7.15,31.73"/><g class="uuid-5783da54-853b-47ac-b141-0898acd599fe"><path d="M9.77,104.61H408.23v-3.73H9.77v3.73Z"/></g><path d="M22.39,123.86l-3.44-15.12h-4.94l5.78,21h5.12l5.68-21h-4.8"/><g class="uuid-2286591f-af46-4090-ba80-b99c2cca3d3d"><path d="M41.1,123.89c-.56,.91-1.34,1.36-2.36,1.36s-1.77-.46-2.34-1.39-.86-2.45-.86-4.57,.29-3.67,.87-4.6c.58-.93,1.34-1.39,2.3-1.39s1.78,.46,2.36,1.37c.58,.91,.87,2.36,.87,4.33,0,2.35-.28,3.98-.83,4.89m-2.39-15.5c-2.48,0-4.42,.96-5.81,2.87-1.39,1.91-2.09,4.58-2.09,8.01,0,2.45,.35,4.5,1.05,6.13,.7,1.63,1.62,2.83,2.75,3.58,1.13,.75,2.56,1.13,4.28,1.13s3.12-.44,4.25-1.31,2.01-2.1,2.61-3.67c.6-1.57,.9-3.58,.9-6.04,0-3.38-.69-6.01-2.07-7.89-1.38-1.88-3.34-2.82-5.89-2.82"/></g><path d="M53.94,108.75h-4.73v21h12.11v-5.17h-7.38"/><path d="M61.31,113.93h4.82v15.82h4.73v-15.82h4.82v-5.19h-14.37"/><path d="M82.55,120.86h7.36v-4.28h-7.36v-3.34h7.93v-4.48h-12.67v21h12.9v-4.76h-8.16"/><path d="M107.92,108.75h-5.16l-2.64,6.46-2.71-6.46h-5.21l4.8,10.06-5.28,10.95h5.28l3.02-6.75,3.02,6.75h5.31l-5.21-10.83"/><path d="M140.58,121.74l1.67-7.55,1.69,7.55h-3.36Zm-12.87-5.43c-.2,.35-.46,.57-.77,.66-.62,.19-1.04,.29-1.25,.29h-1.99v-4.27h2.08c.86,0,1.45,.18,1.76,.54,.31,.36,.47,.88,.47,1.56,0,.46-.1,.86-.3,1.22m12.02-7.56l-5.74,20.97-2.28-6.05c-.11-.31-.33-.74-.66-1.3-.33-.56-.58-.93-.76-1.1-.26-.26-.67-.52-1.23-.77,.7-.22,1.26-.5,1.66-.83,.63-.53,1.13-1.21,1.49-2.05,.36-.85,.54-1.85,.54-3.02,0-1.34-.24-2.47-.71-3.4s-1.1-1.57-1.87-1.91c-.77-.34-1.89-.52-3.35-.52h-7.88v21h4.75v-8.52h.42c.43,0,.82,.16,1.16,.49,.25,.25,.54,.79,.86,1.62l2.53,6.42h10.15l.75-3.47h5.37l.77,3.47h4.95l-5.75-21"/><g class="uuid-936ebde2-8523-40a3-a1ec-3d77e7561e52"><path d="M160.93,124.19c-.46,.7-1.15,1.05-2.05,1.05s-1.66-.43-2.17-1.29-.77-2.46-.77-4.79c0-1.88,.22-3.26,.65-4.14,.57-1.18,1.39-1.77,2.46-1.77,.47,0,.9,.13,1.28,.4,.38,.27,.71,.65,.97,1.15,.16,.3,.31,.76,.46,1.4l4.18-1.28c-.54-2.22-1.35-3.86-2.46-4.93-1.1-1.07-2.62-1.6-4.55-1.6-2.46,0-4.37,.93-5.71,2.8s-2.02,4.54-2.02,8.01c0,2.61,.38,4.74,1.15,6.41,.77,1.67,1.68,2.84,2.73,3.5,1.05,.66,2.41,.99,4.08,.99,1.37,0,2.5-.27,3.39-.82s1.63-1.35,2.23-2.42c.6-1.07,1.04-2.4,1.32-4l-4.14-1.72c-.21,1.33-.54,2.34-1.01,3.04"/></g><path d="M168.57,129.75h4.74v-21h-4.74v21Z"/><path d="M186.91,120.37l-5.76-11.62h-4.42v21h4.45v-11.53l5.73,11.53h4.46v-21h-4.46"/><g class="uuid-602f7bae-0180-4684-87cd-bec576b98a94"><path d="M202.2,122.14h3.16v1.98c-.62,.51-1.17,.86-1.65,1.07-.48,.21-.98,.32-1.51,.32-1.11,0-1.98-.49-2.6-1.46s-.93-2.6-.93-4.87c0-2.14,.31-3.7,.92-4.69,.62-.99,1.44-1.48,2.48-1.48,.7,0,1.27,.21,1.72,.63,.45,.42,.77,1.03,.96,1.82l4.56-1.12c-.28-1.36-.69-2.48-1.25-3.36s-1.25-1.54-2.09-1.96c-.84-.42-2.1-.63-3.79-.63s-3.15,.34-4.19,1.02c-1.33,.88-2.34,2.17-3.03,3.86-.69,1.7-1.03,3.69-1.03,5.98s.31,4.11,.94,5.79c.63,1.68,1.52,2.95,2.66,3.8,1.14,.85,2.63,1.27,4.44,1.27,1.47,0,2.75-.24,3.83-.71,1.08-.47,2.31-1.36,3.71-2.67v-8.95h-7.31"/></g><g class="uuid-53854030-4133-4f0c-8acf-42607d9bab78"><path d="M228.07,117.48c-.89-.63-2.37-1.24-4.44-1.86-.84-.24-1.36-.5-1.59-.77-.23-.27-.34-.57-.34-.9,0-.46,.14-.85,.42-1.17,.28-.32,.69-.48,1.24-.48,.67,0,1.19,.22,1.57,.65,.38,.43,.63,1.12,.75,2.06l4.46-.36c-.19-2.18-.81-3.77-1.83-4.76-1.03-1-2.52-1.5-4.47-1.5-1.59,0-2.85,.27-3.76,.82s-1.6,1.3-2.06,2.26c-.46,.96-.68,1.98-.68,3.06,0,1.64,.45,2.99,1.34,4.05,.88,1.06,2.36,1.91,4.44,2.55,1.27,.38,2.07,.79,2.42,1.22,.35,.43,.52,.92,.52,1.46,0,.57-.18,1.08-.55,1.51-.36,.43-.89,.65-1.56,.65-.9,0-1.6-.42-2.09-1.28-.3-.52-.5-1.29-.6-2.29l-4.5,.39c.13,2.12,.7,3.87,1.7,5.24,1,1.38,2.8,2.06,5.41,2.06,1.48,0,2.71-.29,3.69-.88s1.73-1.45,2.28-2.59c.54-1.14,.81-2.38,.81-3.72,0-1.15-.2-2.18-.61-3.11-.41-.93-1.06-1.7-1.95-2.33"/></g><g class="uuid-340dd841-b1a5-43d1-a261-e7d93b2383e8"><path d="M242.97,121.56c0,1.16-.23,2.06-.69,2.7s-1.1,.95-1.92,.95-1.46-.32-1.93-.97c-.46-.64-.69-1.54-.69-2.68v-12.81h-4.72v12.51c0,1.03,.15,2.21,.44,3.55,.18,.83,.52,1.64,1.01,2.42,.49,.78,1.03,1.39,1.62,1.81,.59,.43,1.33,.71,2.21,.85,.88,.14,1.69,.21,2.44,.21,1.29,0,2.39-.23,3.31-.7,.66-.33,1.29-.91,1.89-1.74s1.04-1.79,1.33-2.89c.28-1.1,.42-2.27,.42-3.51v-12.51h-4.72"/></g><path d="M263.82,112.95v-4.2h-13.38v4.48h7.67l-8.5,12.16v4.36h14.52v-4.51h-8.9"/><g class="uuid-3fc212be-5ace-4522-a670-2f001fdc7f10"><path d="M276.22,121.56c0,1.16-.23,2.06-.69,2.7-.46,.63-1.1,.95-1.91,.95s-1.46-.32-1.93-.97c-.46-.64-.69-1.54-.69-2.68v-12.81h-4.72v12.51c0,1.03,.14,2.21,.44,3.55,.18,.83,.52,1.64,1.01,2.42,.49,.78,1.03,1.39,1.62,1.81,.59,.43,1.33,.71,2.21,.85,.88,.14,1.69,.21,2.44,.21,1.29,0,2.39-.23,3.31-.7,.66-.33,1.29-.91,1.89-1.74,.6-.83,1.04-1.79,1.33-2.89,.28-1.1,.42-2.27,.42-3.51v-12.51h-4.72"/></g><path d="M300.06,108.75h-6.29l-4.95,7.94v-7.94h-4.73v21h4.73v-5.13l2.44-3.51,3.23,8.64h5.82l-5.84-13.08"/><path d="M306.94,121.74l1.67-7.55,1.69,7.55h-3.36Zm-.85-12.99l-5.75,21h4.83l.75-3.47h5.37l.76,3.47h4.95l-5.75-21"/><g class="uuid-131f06bb-c97f-447b-8785-8a3e29d0b713"><path d="M332,121.69c0,1.28-.12,2.19-.37,2.73-.25,.54-.64,.81-1.17,.81-.33,0-.59-.09-.77-.27-.27-.28-.45-.64-.56-1.09-.11-.45-.17-1.14-.18-2.06l-4.52,.85c.08,1.62,.36,2.99,.82,4.09,.46,1.1,1.12,1.94,1.97,2.51,.85,.57,2.05,.86,3.59,.86,1.46,0,2.66-.43,3.6-1.3,.94-.87,1.56-1.93,1.87-3.18,.31-1.25,.46-3.07,.46-5.47v-11.41h-4.74"/></g><path d="M344.41,121.74l1.67-7.55,1.69,7.55h-3.36Zm-.85-12.99l-5.75,21h4.83l.75-3.47h5.37l.76,3.47h4.95l-5.75-21"/><path d="M363.78,117.05c-.37,.43-1.01,.65-1.92,.65h-1.16v-4.69h1.35c.88,0,1.49,.23,1.81,.69,.32,.46,.48,1.02,.48,1.68s-.18,1.23-.55,1.67m3.88-6.63c-.85-1.12-2.13-1.68-3.84-1.68h-7.86v21h4.75v-7.79h2.59c1.91,0,3.33-.6,4.26-1.79,.93-1.19,1.39-2.85,1.39-4.97s-.43-3.65-1.28-4.77"/><path d="M374.66,121.74l1.67-7.55,1.69,7.55h-3.36Zm-.85-12.99l-5.75,21h4.83l.75-3.47h5.37l.77,3.47h4.95l-5.75-21"/><path d="M396.43,120.37l-5.76-11.62h-4.42v21h4.45v-11.53l5.73,11.53h4.46v-21h-4.46"/></g></svg>