<?xml version="1.0" encoding="UTF-8"?><svg id="uuid-97f1de13-4d0d-4f15-b852-9a24162bc903" xmlns="http://www.w3.org/2000/svg" viewBox="0 0 418 172"><path d="M71.72,168.07H25.18V31.27c1.15-.34,42.38-.5,47.07-.16,6.76,13.68,13.56,27.45,20.36,41.22,.11-.02,.22-.05,.34-.07V31.05h252.17V4.82c.11-.05,.23-.1,.34-.15,15.74,14.91,31.49,29.82,47.37,44.86-15.83,14.99-31.58,29.91-47.46,44.95-.41-1.33-.18-2.52-.22-3.68-.04-1.21,0-2.42,0-3.64v-18.29c-1.2-.34-202.33-.47-205.34-.17-.04,.03-.08,.06-.11,.1-.03,.04-.05,.08-.07,.13-.02,.05-.02,.1-.03,.15,0,.05-.01,.1-.02,.15,0,.05,0,.1,0,.15,0,.1,0,.2,0,.3,0,.1,0,.2,0,.3,0,32.38,0,64.76,0,97.13,0,.1,0,.2,0,.3,0,.05,0,.1-.01,.15,0,.05,0,.1-.02,.15-.01,.05-.04,.09-.06,.13-1.05,.35-43.43,.51-46.55,.16-6.95-13.97-13.93-28-20.91-42.04-.09,.02-.18,.04-.27,.06v42.03Z"/><path d="M238.16,76.95v90.66c-1.1,.35-90.36,.43-92.11,.09V77.02c1.1-.31,90.32-.39,92.11-.07Zm-53.86,24.79c-.08,.28-.15,.43-.15,.57,0,13.52-.01,27.04-.01,40.57,0,.2,.04,.4,.07,.6,0,.04,.05,.08,.08,.12,.03,.04,.07,.07,.1,.09h15.82c.36-2.05,.25-40.87-.11-41.94h-15.8Z"/><path d="M338.33,76.85c0,8.25,0,16.41,0,24.57-.03,.04-.06,.08-.1,.11-.04,.03-.08,.07-.12,.08-.1,.03-.2,.05-.3,.06-.1,.01-.2,.01-.3,.01-17.63,.02-35.25,.04-52.88,.06-.05,0-.09,.03-.14,.04-.31,1.05-.39,5.56-.12,8,2.22,0,4.47,.02,6.71,.03,2.27,0,4.55,0,6.82,0h33.79c2.27,0,4.53,0,6.9,0v57.82s-.03,.05-.07,.08c-.04,.03-.08,.08-.13,.08-.5,.04-1,.09-1.5,.09-29.8,0-59.6-.02-89.4-.03-.14,0-.28-.09-.48-.17v-23.87h52.07c.36-1.18,.44-7.53,.15-9.59h-51.99c-.36-1.21-.44-55.57-.11-57.39h91.2Z"/><path d="M392.25,15.83c.3,7.85-6.33,12.39-11.97,12.35-7.29-.05-11.96-5.58-12.11-12.12-.14-6.08,4.61-12.07,11.8-12.27,5.71-.16,12.57,4.61,12.28,12.04Zm-12.08,9.81c5.32,.24,9.78-4.24,9.88-9.67,.1-6-5.63-10-9.78-9.93-5.28,.08-9.95,4.58-9.89,9.84,.06,4.97,3.76,9.91,9.79,9.76Z"/><path d="M377.93,17.17v4.98h-2.97V9.58c.33-.05,.66-.14,1-.13,2.02,.02,4.04-.05,6.05,.13,2.13,.18,3.36,1.81,3.18,3.84-.09,1.03-.55,1.83-1.42,2.37-.55,.34-1.15,.6-1.84,.95,2.09,1.24,2.64,3.43,3.81,5.46h-3.53c-1.27-1.65-1.56-4.16-4.28-5.03Zm.07-5.6v3.34c.96,.15,1.84,.19,2.71-.16,.66-.26,1.13-.69,1.11-1.45-.02-.74-.46-1.26-1.15-1.42-.82-.18-1.67-.21-2.67-.32Z"/></svg>