<?xml version="1.0" encoding="UTF-8"?><svg id="uuid-4ad5713b-4adb-4c2c-b963-55d674475b13" xmlns="http://www.w3.org/2000/svg" viewBox="0 0 173 173"><defs><style>.uuid-be403ae4-bb7d-4a68-a03d-b7727871d9f2{fill:#b3b3b3;}</style></defs><path class="uuid-be403ae4-bb7d-4a68-a03d-b7727871d9f2" d="M28.93,120.86c-19.66-46.28,2.54-84.31,31.33-99.27,26.6-13.83,60.54-10.01,82.69,9.89,23.73,21.31,31.27,54.18,19.14,83.49-11.76,28.43-39.94,46.36-70.97,44.54-3.2-.19-6.21-3.71-9.3-5.68,3.19-1.36,6.38-3.88,9.57-3.88,31.57-.03,56.64-18.39,64.37-47.6,7.34-27.74-5.38-57.01-30.98-71.27-23.45-13.06-53.06-9.45-73.15,8.92-20.01,18.3-26.15,47.83-14.96,72.08,.49,1.07,1.23,2.02,2.77,4.51,2.02-6.99,3.14-12.66,5.39-17.83,1.02-2.35,4.28-3.72,6.53-5.53,.99,2.77,3.25,5.79,2.74,8.25-1.85,8.97-4.83,17.69-6.96,26.61-1.26,5.26-4.04,7.28-9.17,5.92-9.19-2.43-18.45-4.65-27.43-7.69-2.26-.76-3.58-4.29-5.33-6.55,2.75-.9,5.59-2.73,8.24-2.5,4.73,.42,9.36,2.09,15.49,3.6Z"/><path class="uuid-be403ae4-bb7d-4a68-a03d-b7727871d9f2" d="M99.63,64.26c-4.97,14.76,3.96,26.82,16.95,37.32,3.29,2.66,6.4,5.75,8.83,9.19,1.12,1.59,1.34,5.62,.27,6.51-1.51,1.25-5.63,1.71-6.82,.59-9.52-8.98-18.71-18.31-27.7-27.82-1.31-1.39-1.42-4.28-1.44-6.48-.12-14.1-.32-28.21,.16-42.29,.09-2.72,3.09-5.34,4.74-8.01,1.67,2.71,4.47,5.29,4.78,8.15,.72,6.48,.23,13.09,.23,22.84Z"/></svg>