<?xml version="1.0" encoding="UTF-8"?><svg id="uuid-fd68a88b-acbd-40cb-808b-6789c239a2d2" xmlns="http://www.w3.org/2000/svg" viewBox="0 0 173 173"><defs><style>.uuid-23af35b6-77d5-4ee2-bfe1-10b326c866c2{fill:#da1921;}.uuid-d510fa70-5a26-4d18-981c-14bc8ead7c10{fill:#b3b3b3;}.uuid-e829e4df-918d-4756-836f-6cfb003ad4f8{fill:#fff;font-family:MyriadPro-Bold, 'Myriad Pro';font-size:42.98px;}</style></defs><g><path class="uuid-d510fa70-5a26-4d18-981c-14bc8ead7c10" d="M84.1,152.99c-3.82-1.43-7.49-3.12-9.37-7.03-.89-1.85-1.36-3.9-2.15-6.26h27.04c1.31,3.96-3.11,10.22-7.36,11.95-1.1,.45-2.2,.9-3.3,1.35h-4.85Z"/><path class="uuid-d510fa70-5a26-4d18-981c-14bc8ead7c10" d="M86.22,132.42c-14.46,0-28.92-.04-43.38,.03-3.33,.02-6.03-.85-7.41-4.08-1.43-3.35-.46-6.35,2.33-8.35,6.83-4.93,8.81-11.39,8.07-19.62-.7-7.82-.22-15.76-.12-23.65,.14-11.26,3.28-21.52,10.77-30.16,4.69-5.4,10.53-9.12,17.41-11.05,1.99-.56,2.6-1.44,2.42-3.36-.11-1.19-.01-2.43,.19-3.62,.97-5.48,5.23-8.83,10.76-8.53,5.01,.27,9.43,4.16,9.23,9.41-.18,4.48,1.77,5.7,5.46,7.14,14.53,5.67,22.36,17.08,24.49,32.04,1.23,8.64,.72,17.53,.9,26.32,.1,4.85-.11,9.71,.1,14.56,.06,1.44,.78,3.08,1.71,4.19,1.94,2.32,4.19,4.38,6.38,6.48,2.44,2.32,3.41,4.99,2.05,8.19-1.32,3.1-3.87,4.1-7.1,4.09-14.76-.05-29.52-.02-44.29-.02Z"/></g><circle class="uuid-23af35b6-77d5-4ee2-bfe1-10b326c866c2" cx="124.5" cy="48.5" r="27.5"/><text class="uuid-e829e4df-918d-4756-836f-6cfb003ad4f8" transform="translate(113.76 61.41)"><tspan x="0" y="0">3</tspan></text></svg>