<?xml version="1.0" encoding="UTF-8"?><svg id="uuid-4483672e-a79d-4069-841c-9118422c50b5" xmlns="http://www.w3.org/2000/svg" viewBox="0 0 173 173"><defs><style>.uuid-9c0450e7-4a9f-4268-8f3c-58f3e0e5f97d{fill:#da1921;}</style></defs><path class="uuid-9c0450e7-4a9f-4268-8f3c-58f3e0e5f97d" d="M27.08,137.47V50.85c1.94-5.73,6.52-7.88,11.97-8.89,17.34-3.21,34.68-6.4,52.02-9.64,9.14-1.71,18.26-3.49,27.38-5.24,1.41,0,2.82,0,4.23,0,7.46,4.12,9.27,7.4,8.11,14.96-30.81,3.25-61.66,6.51-92.51,9.76-.09,.37-.19,.73-.28,1.1,2.01,1.09,3.91,2.53,6.05,3.16,2.22,.66,4.68,.72,7.03,.72,27.79,.04,55.58,.03,83.37,.03,5.24,0,8.76,2.37,10.81,7.23,.16,.38,.44,.71,.66,1.06v72.36c-1.55,4.09-4.36,6.9-8.45,8.45H35.53c-4.09-1.55-6.9-4.36-8.45-8.45Zm89.32-36.02c.03,5.38,4.36,9.65,9.75,9.63,5.36-.03,9.69-4.35,9.72-9.69,.03-5.39-4.52-9.88-9.92-9.8-5.32,.08-9.58,4.48-9.55,9.87Z"/></svg>